<svg id="Layer_1" data-name="Layer 1" xmlns="http://www.w3.org/2000/svg" viewBox="0 0 990.62 451.81"><defs><style>.cls-1,.cls-11,.cls-12,.cls-6{fill:none;}.cls-1,.cls-10,.cls-12{stroke:#e09200;}.cls-1,.cls-10,.cls-11,.cls-12,.cls-6{stroke-miterlimit:10;}.cls-2{opacity:0.68;}.cls-3{fill:#8f7458;}.cls-4{fill:#9e6900;}.cls-5{fill:#e6bf77;}.cls-11,.cls-6{stroke:#5e3616;}.cls-12,.cls-6{stroke-width:2px;}.cls-7{isolation:isolate;}.cls-10,.cls-8{fill:#ffc543;}.cls-9{fill:#e09200;}.cls-11{stroke-width:1.5px;}</style></defs><g id="Layer_3" data-name="Layer 3"><line class="cls-1" x1="949.1" y1="246.11" x2="949.1" y2="264.41"/></g><g id="Layer_1-2" data-name="Layer 1"><g id="Layer_1-3" data-name="Layer 1"><g id="Layer_1-4" data-name="Layer 1"><g id="Layer_1-5" data-name="Layer 1"><g id="guitar"><g id="guitar_body" data-name="guitar body" class="cls-2"><path class="cls-3" d="M725.1,63.2h19.1c.7,0,1.3.4,1.3,1l1.1,122.3a15.23,15.23,0,0,0,2,7.4l.3.5c.4.7-.3,1.2-1.1,1.2l-23.4.4h-1.8c-1,0-1.5-.8-1.1-1.3h0a13.58,13.58,0,0,0,2.3-7.1L724,64.2C723.9,63.5,724.5,63.2,725.1,63.2Z" transform="translate(-5.7 -4.39)"/><path class="cls-3" d="M730.2,66.8h8.5c3.4,0,6.5-1.2,7.6-3.3l7.2-12.9,4-36.2c.2-1.2-.9-2.6-2.7-3.3-4.4-1.8-12.5-4.9-13.6-5.6-4.1-2.5-12.3,0-12.3,0l-8.1,3.6-5.6,2.2c-2.1.9-3.3,2.2-3.3,3.6L714,52l8.5,12C723.7,65.6,726.7,66.8,730.2,66.8Z" transform="translate(-5.7 -4.39)"/><path class="cls-3" d="M754.8,24.1l6.8-1.7a2.11,2.11,0,0,0,1.2-2.8l-.3-.8a1.67,1.67,0,0,0-2.1-.9l-6.5,3.4Z" transform="translate(-5.7 -4.39)"/><path class="cls-3" d="M752.5,38.3l6.8-1.7a2.11,2.11,0,0,0,1.2-2.8l-.3-.8a1.67,1.67,0,0,0-2.1-.9l-6.5,3.4Z" transform="translate(-5.7 -4.39)"/><path class="cls-3" d="M751,50.8l6.8-1.7a2.11,2.11,0,0,0,1.2-2.8l-.3-.8a1.67,1.67,0,0,0-2.1-.9L750.1,48Z" transform="translate(-5.7 -4.39)"/><path class="cls-3" d="M715.1,22.5l-5.9-4.2a1.62,1.62,0,0,0-2.6,1l-.2.8a1.7,1.7,0,0,0,1,2.2l6.8,2.8Z" transform="translate(-5.7 -4.39)"/><path class="cls-3" d="M715.2,35.3l-5.9-4.2a1.62,1.62,0,0,0-2.6,1l-.2.8a1.7,1.7,0,0,0,1,2.2l6.8,2.8Z" transform="translate(-5.7 -4.39)"/><path class="cls-3" d="M715.8,48.9l-5.9-4.2a1.62,1.62,0,0,0-2.6,1l-.2.8a1.7,1.7,0,0,0,1,2.2l6.7,2.9Z" transform="translate(-5.7 -4.39)"/><path class="cls-3" d="M812.6,310.8c-1.6-5.1-5.2-12.5-12.4-27.1-3.9-7.9-6.9-13.8-7.2-22.3,0-1.4.4-4.8,1.1-11.6,1.1-9.5,2-13.3,2.6-21.7.4-5.4.7-8.2.3-9.8-2.1-9.9-11-15.7-13.1-16.9-3.5-2.1-7.5-3.6-17.5-5-7.9-1.4-18.3-2.5-40.3-1.6-18.7.7-23.3,1.8-27.8,3.7-4.1,1.7-11.2,4.8-15.1,12-2.6,4.7-2.6,8.7-2.6,15.1,0,10.9,2.9,13.8,3.1,24.9a70.58,70.58,0,0,1-1.1,14c-2,10.4-5.5,16.1-11.1,27.3-7.3,14.8-11,22.3-12,28.2-.7,4-3.7,22.1,8.7,36.2,7.9,9.2,18.7,12.6,23.8,14.3,2,.7,6.2,1.9,20.6,3.2a267.21,267.21,0,0,0,42.1,1.1c13.8-.8,20.8-1.1,29.5-4.2,5-1.7,12.6-4.5,19.7-11.1A39.39,39.39,0,0,0,815,343.3C819.3,331.2,815.9,320.5,812.6,310.8ZM750.89,265a5.76,5.76,0,0,1,0,3.6,5.81,5.81,0,0,1-.25,3.12,5.74,5.74,0,0,1-.29,2.6,5.59,5.59,0,0,1-.51,4.83,55.87,55.87,0,0,1-.75,6.09,5.46,5.46,0,0,1-.33,1.8,6.85,6.85,0,0,1-.13.79,2.8,2.8,0,0,1,0,.29v.16a5,5,0,0,1-.68,2.53l-.29.37a4.46,4.46,0,0,1-.34.74l-.78,1-.16.13a5.65,5.65,0,0,1-.46,2.24,18.32,18.32,0,0,1-1.46,3.44,5.05,5.05,0,0,1-1.6,1.59,8,8,0,0,1-6.74,3.24c-4.73-1.42-6.17-6.07-7.44-10.36-2-6.77-4.08-13.39-4.64-20.47a4.14,4.14,0,0,1,.71-2.71,4.78,4.78,0,0,1-.07-.94,30.69,30.69,0,0,1,.73-6c.26-4.4,0-8.6,1-12.87a63.19,63.19,0,0,1,.95-10.51l0-.11a5.56,5.56,0,0,1,.64-3.14l.61-1.19a5.1,5.1,0,0,1,1.12-1.73l.48-.37a5,5,0,0,1,2.47-5,4.56,4.56,0,0,1,4.55-3.24,5.49,5.49,0,0,1,1.26.16h0a4.52,4.52,0,0,1,4.26,2.56,4.63,4.63,0,0,1,2.81,3.42,5.56,5.56,0,0,1,.39,1.49,5.34,5.34,0,0,1,1.17,3.4,5.51,5.51,0,0,1,1,4.32A5.44,5.44,0,0,1,749.4,246a5.43,5.43,0,0,1,1.13,5,5.56,5.56,0,0,1,.49,5.44,5.63,5.63,0,0,1,.17,4.92A5.66,5.66,0,0,1,750.89,265Z" transform="translate(-5.7 -4.39)"/><path class="cls-3" d="M809.9,310.8c-1.6-5.1-5.2-12.5-12.4-27.1-3.9-7.9-6.9-13.8-7.2-22.3,0-1.4.4-4.8,1.1-11.6,1.1-9.5,2-13.3,2.6-21.7.4-5.4.7-8.2.3-9.8-2.1-9.9-11-15.7-13.1-16.9-3.5-2.1-7.5-3.6-17.5-5-7.8-1.4-18.3-2.5-40.3-1.6-18.7.7-23.3,1.8-27.8,3.7-4.1,1.7-11.2,4.8-15.1,12-2.6,4.7-2.6,8.7-2.6,15.1,0,10.9,2.9,13.8,3.1,24.9a70.58,70.58,0,0,1-1.1,14c-2,10.4-5.5,16.1-11.1,27.3-7.3,14.8-11,22.3-12,28.2-.7,4-3.7,22.1,8.7,36.2,7.9,9.2,18.7,12.6,23.8,14.3,2,.7,6.2,1.9,20.6,3.2a267.21,267.21,0,0,0,42.1,1.1c13.8-.8,20.8-1.1,29.5-4.2,5-1.7,12.6-4.5,19.7-11.1a39.39,39.39,0,0,0,11.1-16.2C816.6,331.2,813.2,320.5,809.9,310.8Zm-58.23-49.64a6.17,6.17,0,0,1-.13,1.49,5.3,5.3,0,0,1,.31,1.79,5.24,5.24,0,0,1-.33,1.77,5.71,5.71,0,0,1-.47,2.2v.32a5.32,5.32,0,0,1-.16,1.27c0,.1,0,.21,0,.31V271a5,5,0,0,1-.6,2.36c0,.15,0,.3-.07.43a1.6,1.6,0,0,1-.05.21h0c1.3,3.89.3,8-1.41,11.85a5.55,5.55,0,0,1-.93,4,23.28,23.28,0,0,1-1.9,5.7,3.8,3.8,0,0,1-1.06,1.34,4.71,4.71,0,0,1-1.25,2,4.52,4.52,0,0,1-2.67,2.92,4.7,4.7,0,0,1-3,1,4.54,4.54,0,0,1-4.49-3.08,4.78,4.78,0,0,1-.42-.81,4.69,4.69,0,0,1-1.74-2.52,5,5,0,0,1-.87-1.86,5.6,5.6,0,0,1-1.21-1.52,4.75,4.75,0,0,1-.82-2.36c-.9-3.24-1.39-6.59-2.56-9.76a4,4,0,0,1-.2-.81,4.69,4.69,0,0,1-.77-2.74c0-4,.21-8,.39-12.06-1-3.58,0-7.41.32-11.15,0-.89,0-1.78,0-2.68A41,41,0,0,1,728,239.9a17,17,0,0,1,1.86-7.32,5.7,5.7,0,0,1,.77-1.09,4.85,4.85,0,0,1,3.12-4.92,4.87,4.87,0,0,1,8-.67,4.57,4.57,0,0,1,1.3,1.47,4.76,4.76,0,0,1,2.66,3.8,5.3,5.3,0,0,1,.79,2.11,5.39,5.39,0,0,1,1.31,5.11,4.92,4.92,0,0,1,1.13,2.27,5.42,5.42,0,0,1,1.06,4.1,5.7,5.7,0,0,1-.11,1.93c0,.12,0,.23,0,.35a5.54,5.54,0,0,1,.79,4.47,4.6,4.6,0,0,1,.47,1.3,11,11,0,0,1,.2,1.8c0,.1,0,.2,0,.3a4.21,4.21,0,0,1,.12.48s0,.08,0,.11l.18,1.33c0,.09,0,.17,0,.26a3.38,3.38,0,0,1,0,.45,5.25,5.25,0,0,1,.32,1.83A5.12,5.12,0,0,1,751.67,261.16Z" transform="translate(-5.7 -4.39)"/></g></g><g id="top_scroll" data-name="top scroll"><path class="cls-4" d="M751.3,171.6c-2.6-9-41.4-8.9-50.4-6.4-38.4,10.4-76.9,17.5-115.3,27.7-12.1,3.3-24.5,7.3-37.3,8.5-7.6.6-24.5-.3-31.9-2.6-18.5-10.3-17.8-30.7-5.4-46.4,5.4-6.9,12.5-10,21.6-8.6,8.8,1.3,12.4,7.1,13.2,12.5,9.6,4,17.3,7.2,24.8,10.7,3.4,1.5,6.3,4.3,9.7,5.8,6.4,3,12.5,2.2,18.1-1.8a13.11,13.11,0,0,0,6.1-13.2c-.8-6-5.4-9.3-12.4-8.5-7.5.9-13.2,6.6-11.4,12,.9,2.5,4.7,4.1,8.3,7.2-1.1,1.5-3.7,1.9-6.7.1-5.9-3.2-6.7-11.6-1.7-17,5.4-5.8,19.2-12.2,27.1-8.3,5.1,2.5,8,9,8,18,0,8.1-11.9,14.6-21,15.7-7.4.8-14.2-.3-20.7-4.4a100.54,100.54,0,0,0-19.2-9.4c-4.7-1.8-8.7-.8-11.4,4.5-1.4,2.7-5.4,4.4-8.5,6.2-.2.1-3.1-2.5-3.5-4.1-1.1-4.6,2.1-7.1,6-8.8a47.64,47.64,0,0,1,5.3-1.9c-.9-10.2-12.5-12.9-18.6-4.3-6.6,9-5.4,13-3.9,22,2.1,11.3,16.7,15.4,30.5,15.4,14.3.1,32.6-3,46.5-6.4,40.6-10.3,61.9-16.7,102.2-27.7,10.1-2.7,20.8-5,31.3-5.4,14.1-.6,36.3,8,36.4,21.4.1,7.6-1,12-8,15.4-3.9,2.6-8,6.4-17.3,5.1-8.1-.9-11.4-6.4-8-11.6,6-9.3,3.9,1.3,17.3-7.7" transform="translate(-5.7 -4.39)"/><path class="cls-4" d="M256.1,171.4c2.6-9,40.1-8.9,48.8-6.4,37.1,10.4,74.4,17.5,111.6,27.7,11.8,3.3,23.8,7.3,36.2,8.5,7.4.6,23.8-.3,30.8-2.6,17.9-10.3,17.2-30.7,5.1-46.4-5.3-6.9-12-10-20.8-8.6-8.5,1.3-11.8,7.1-12.9,12.5-9.3,4-16.7,7.2-24,10.7-3.4,1.5-6.1,4.3-9.3,5.8-6.1,3-12,2.2-17.6-1.8-4.7-3.2-6.5-7.7-5.9-13.2.8-6,5.3-9.3,11.9-8.5,7.2.9,12.9,6.6,10.9,12-.9,2.5-4.4,4.1-8,7.2,1,1.5,3.5,1.9,6.5.1,5.6-3.2,6.5-11.6,1.7-17-5.3-5.8-18.5-12.2-26.1-8.3-4.9,2.5-7.7,9-7.7,18,0,8.1,11.6,14.6,20.5,15.7,7,.8,13.7-.3,19.9-4.4a91.91,91.91,0,0,1,18.5-9.4c4.4-1.8,8.5-.8,10.9,4.5,1.4,2.7,5.3,4.4,8.1,6.2a10.75,10.75,0,0,0,3.4-4.1c1.1-4.6-1.8-7.1-5.9-8.8a44.45,44.45,0,0,0-5.1-1.9c.9-10.2,12-12.9,18.1-4.3,6.5,9,5.1,13,3.9,22-2.1,11.3-16.1,15.4-29.5,15.4-14,.1-31.6-3-45-6.4-39.2-10.3-59.7-16.7-98.8-27.7-9.9-2.7-20-5-30.2-5.4-13.7-.6-34.9,8-35.2,21.4-.1,7.6,1,12,7.7,15.4,3.9,2.6,7.7,6.4,16.7,5.1,7.8-.9,10.9-6.4,7.7-11.6-5.6-9.3-3.9,1.3-16.7-7.7" transform="translate(-5.7 -4.39)"/><g id="dots"><g id="left"><path class="cls-5" d="M375.9,164.7l-3.5-7.2c-1.2-2.7-4.2-6.2-6.1-7.2l-1.2-.8c-.5-.3-.9-.4-1.1-.3l-2.1,1.4c-.2.1-.2.5-.2.8l.1.9c.2,1.9,2.9,5.9,5.4,8.1l6.6,5.7C376.2,168.2,377.1,167.4,375.9,164.7Z" transform="translate(-5.7 -4.39)"/><path class="cls-5" d="M379.4,159.1l-.1-5.7a15.16,15.16,0,0,0-1.8-6.3l-.6-.8a.82.82,0,0,0-.8-.5l-1.7.4c-.1,0-.2.3-.4.5l-.1.6c-.4,1.3.2,4.8,1.2,6.8l2.7,5.4C378.7,161.5,379.4,161.3,379.4,159.1Z" transform="translate(-5.7 -4.39)"/><path class="cls-5" d="M368.1,166.3l-4.3-3.9c-1.6-1.4-4.4-3-6-3.2l-1-.1a2,2,0,0,0-.9.1l-1,1.4c-.1.1,0,.4.1.6l.4.6a14.12,14.12,0,0,0,5.9,3.9l6,2C369.4,168.3,369.7,167.7,368.1,166.3Z" transform="translate(-5.7 -4.39)"/></g><g id="right"><path class="cls-5" d="M623.7,165.8l6.9-4.6a22.77,22.77,0,0,0,6.4-7l.5-1.3c.2-.6.2-.9,0-1l-1.8-1.7a1.31,1.31,0,0,0-.9,0l-.9.3c-2.1.6-5.5,3.9-7.4,6.7l-4.7,7.2C620.3,166.7,621.1,167.6,623.7,165.8Z" transform="translate(-5.7 -4.39)"/><path class="cls-5" d="M630.1,168.2,636,167a13.93,13.93,0,0,0,6.1-3l.7-.8c.2-.4.4-.6.4-.8l-.8-1.5a.68.68,0,0,0-.6-.3h-.6a12.68,12.68,0,0,0-6.7,2.5l-5.1,3.6C627.4,167.9,627.8,168.6,630.1,168.2Z" transform="translate(-5.7 -4.39)"/><path class="cls-5" d="M620.7,158.9l3.2-4.8c1.2-1.8,2.3-4.8,2.2-6.3v-.9c0-.4-.1-.8-.4-.8l-1.6-.6a.68.68,0,0,0-.6.3l-.5.5c-1.1.9-2.6,4-2.8,6.3l-1,5.9C618.6,160.5,619.5,160.6,620.7,158.9Z" transform="translate(-5.7 -4.39)"/></g><g id="middle"><path class="cls-5" d="M502.8,145l2.5-11.4c.9-4.3.6-10.8-.6-13.5l-.9-1.9c-.4-.8-.8-1.2-1.1-1.2h-3.8c-.4,0-.6.3-1,.8l-.6,1.2c-1.5,2.5-1.8,9.5-.8,14l2.6,12.1C500.1,149.4,501.8,149.3,502.8,145Z" transform="translate(-5.7 -4.39)"/><path class="cls-5" d="M509.1,141.4l4.9-6.9c1.8-2.6,3.5-6.9,3.5-9v-1.4c0-.6-.1-.9-.4-1l-2.3-.9q-.3-.15-.9.3l-.9.5c-1.6,1.3-3.9,5.8-4.4,9l-1.6,8.6C506.1,143.6,507.3,144,509.1,141.4Z" transform="translate(-5.7 -4.39)"/><path class="cls-5" d="M494.3,140.4l-1.6-8.2c-.6-3.1-2.6-7.2-4.2-8.6l-1.1-.9c-.5-.5-.9-.6-1.1-.5l-2.3.9a.89.89,0,0,0-.4.8l-.1.9c-.2,2,1.5,6.8,3.5,9.4l5.3,7.2C493.9,144.2,495,143.5,494.3,140.4Z" transform="translate(-5.7 -4.39)"/></g></g></g><g id="SUBTEXT"><g id="lines"><line class="cls-6" x1="274" y1="316.81" x2="730.1" y2="316.81"/><line class="cls-6" x1="274" y1="348.81" x2="733.3" y2="348.81"/></g></g><g id="bottom_scroll" data-name="bottom scroll"><path class="cls-4" d="M201.6,393.1c3.2,10.6,49.6,10.4,60.2,7.6,45.8-12.3,92-20.5,137.5-32.5,14.7-3.9,29.3-8.7,44.5-9.8,9.2-.7,29.3.2,38.1,3.1,22.2,12.1,21.2,36.1,6.3,54.5-6.5,8.1-14.8,11.7-25.7,10.2-10.6-1.5-14.7-8.4-15.9-14.7-11.5-4.7-20.6-8.5-29.8-12.6-4.2-1.8-7.6-5-11.6-6.9-7.6-3.4-14.9-2.5-21.8,2.1-5.7,3.8-7.9,9-7.2,15.5,1,7.1,6.4,10.9,14.7,9.8,8.9-1.1,15.9-7.7,13.4-14.1-1.1-3-5.5-4.9-10-8.5,1.3-1.8,4.4-2.2,7.9-.1,7,3.8,7.9,13.5,2.1,19.9-6.4,6.9-22.8,14.3-32.2,9.7-6.2-3-9.5-10.6-9.5-21.2,0-9.5,14.3-17.2,25.1-18.4,8.9-1,17.1.2,24.5,5.2a116.94,116.94,0,0,0,22.8,11c5.5,2.1,10.4.8,13.6-5.3,1.7-3.2,6.4-5.2,10.1-7.2.2-.1,3.7,3,4.2,4.9,1.4,5.4-2.2,8.4-7.2,10.3-1.9.8-4.4,1.5-6.3,2.2,1.1,12,14.8,15.1,22.3,5,7.9-10.6,6.3-15.2,4.7-25.8-2.5-13.3-19.8-18.1-36.4-18.1-17.2-.1-38.9,3.4-55.5,7.6-48.3,12.1-73.7,19.7-122.1,32.5-12.1,3.2-24.8,5.8-37.2,6.3-16.8.7-43.3-9.4-43.4-25.1-.1-8.9,1.3-14.1,9.5-18.1,4.7-3.1,9.5-7.6,20.6-6,9.6,1.1,13.4,7.6,9.5,13.6-7,10.9-4.7-1.5-20.6,9" transform="translate(-5.7 -4.39)"/><path class="cls-4" d="M803.9,393.3c-3.2,10.6-50.3,10.4-61.1,7.6-46.6-12.3-93.3-20.5-139.9-32.5-14.8-3.9-29.8-8.7-45.2-9.8-9.3-.7-29.8.2-38.7,3.1-22.4,12.1-21.6,36.1-6.5,54.5,6.6,8.1,15.1,11.7,26.2,10.2,10.8-1.5,14.9-8.4,16.1-14.7,11.6-4.7,21-8.5,30-12.6,4.1-1.8,7.6-5,11.7-6.9,7.7-3.4,15.1-2.5,22.1,2.1,5.8,3.8,8.1,9,7.4,15.5-.9,7.1-6.6,10.9-14.9,9.8-9-1.1-16.1-7.7-13.7-14.1,1.1-3,5.6-4.9,10.1-8.5-1.4-1.8-4.5-2.2-8.1-.1-7.2,3.8-8.1,13.5-2.1,19.9,6.5,6.9,23.2,14.3,33,9.7,6.2-3,9.6-10.6,9.6-21.2,0-9.5-14.4-17.2-25.5-18.4-8.9-1-17.2.2-25.1,5.2a120.34,120.34,0,0,1-23.2,11c-5.6,2.1-10.6.8-13.7-5.3-1.6-3.2-6.5-5.2-10.3-7.2-.2-.1-3.7,3-4.2,4.9-1.4,5.4,2.5,8.4,7.3,10.3,2.1.8,4.2,1.5,6.3,2.2-1.1,12-15.1,15.1-22.6,5-8-10.6-6.5-15.2-4.8-25.8,2.5-13.3,20.3-18.1,37.1-18.1,17.4-.1,39.5,3.4,56.3,7.6,49.2,12.1,75.1,19.7,124,32.5,12.3,3.2,25.2,5.8,37.9,6.3,17.1.7,44-9.4,44.2-25.1.1-8.9-1.3-14.1-9.6-18.1-4.8-3.1-9.6-7.6-21-6-9.7,1.1-13.7,7.6-9.6,13.6,7.3,10.9,4.8-1.5,21,9" transform="translate(-5.7 -4.39)"/><g id="dots-2" data-name="dots"><path class="cls-5" d="M648.3,400.1l4.4,8.5c1.5,3.2,5.2,7.2,7.6,8.5l1.5.8c.6.2,1.1.5,1.4.2l2.5-1.7c.2-.1.2-.6.2-1l-.1-1.1c-.2-2.2-3.7-7-6.6-9.5l-8.1-6.6C647.8,396.1,646.7,396.9,648.3,400.1Z" transform="translate(-5.7 -4.39)"/><path class="cls-5" d="M643.9,406.7l.1,6.6a18.48,18.48,0,0,0,2.2,7.4l.7,1a1,1,0,0,0,1,.6l2.1-.5c.1,0,.2-.2.5-.6l.1-.7c.5-1.5-.2-5.6-1.5-7.9l-3.3-6.4C644.7,403.9,643.9,404.1,643.9,406.7Z" transform="translate(-5.7 -4.39)"/><path class="cls-5" d="M657.8,398.3l5.3,4.6a20.11,20.11,0,0,0,7.4,3.8l1.3.1a2.81,2.81,0,0,0,1.1-.1l1.3-1.7c.1-.1,0-.5-.1-.7l-.5-.7c-1-1.4-4.5-3.8-7.2-4.6l-7.4-2.4C656.2,395.8,655.9,396.7,657.8,398.3Z" transform="translate(-5.7 -4.39)"/><path class="cls-5" d="M350.9,397.9l-8.4,5.4c-3.2,2.1-6.9,6-7.8,8.2l-.6,1.5c-.2.7-.2,1.1,0,1.3l2.2,1.9a1.91,1.91,0,0,0,1.1,0l1.1-.2c2.5-.7,6.9-4.6,9-7.8l5.7-8.5C355.2,396.7,354.1,395.8,350.9,397.9Z" transform="translate(-5.7 -4.39)"/><path class="cls-5" d="M343.3,395.1l-7.2,1.4c-2.7.6-6.3,2.2-7.6,3.4l-1,.8c-.2.5-.5.7-.5.8l1,1.8c.1.1.2.2.7.2h.7c1.8.1,5.8-1.3,8.2-3l6.3-4.2C346.5,395.3,345.9,394.5,343.3,395.1Z" transform="translate(-5.7 -4.39)"/><path class="cls-5" d="M354.8,406l-3.9,5.6c-1.5,2.1-2.7,5.6-2.6,7.4v1.1c0,.5.1.8.5.8l1.9.7a1.08,1.08,0,0,0,.7-.2l.6-.6c1.4-1.1,3.2-4.7,3.4-7.4l1.3-7C357.1,404.2,356.2,403.8,354.8,406Z" transform="translate(-5.7 -4.39)"/><path class="cls-5" d="M500.3,423.3l-3.1,13.4c-1.1,5-.7,12.7.7,15.9l1.1,2.2c.5,1,1,1.4,1.4,1.4H505c.5,0,.7-.2,1.3-1l.7-1.4c1.8-3,2.2-11.1,1-16.5l-3.3-14.2C503.6,418.1,501.5,418.2,500.3,423.3Z" transform="translate(-5.7 -4.39)"/><path class="cls-5" d="M488.9,427.5l-6,8.1c-2.2,3.1-4.4,8.1-4.4,10.6v1.7c0,.7.1,1.1.5,1.3l3,1.1a1.68,1.68,0,0,0,1.1-.2l1-.7c1.9-1.5,4.7-6.9,5.5-10.6l1.9-10.2C492.7,424.9,491.3,424.4,488.9,427.5Z" transform="translate(-5.7 -4.39)"/><path class="cls-5" d="M513.2,428.6l1.9,9.6c.7,3.7,3.2,8.5,5.2,10.2l1.4,1.1c.6.6,1.1.7,1.4.6l3-1.1a1.2,1.2,0,0,0,.5-1l.1-1.1c.2-2.4-1.8-7.9-4.4-11l-6.4-8.5C513.9,424.3,512.5,425,513.2,428.6Z" transform="translate(-5.7 -4.39)"/></g></g></g></g><g class="cls-7"><path class="cls-8" d="M72.2,218.4a9.54,9.54,0,0,0-4,7.9v89.4H58.9L24.5,256.1v45.1a8.93,8.93,0,0,0,4,7.9v6.6H6.2v-6.6a8.91,8.91,0,0,0,4.1-7.9V226.3a9.5,9.5,0,0,0-4.1-7.9v-6.6H32.3L54,249.2V226.3a9.41,9.41,0,0,0-4-7.9v-6.6H72.2Zm-1.9-4.7H51.8v3.8c2.7,2.1,4,5,4,8.9v30L31.1,213.7H8.1v3.8c2.7,2.1,4,5,4,8.9v74.9c0,3.9-1.3,6.8-4,8.8V314H26.6v-3.9c-2.8-1.9-4.1-4.8-4.1-8.8V249.2L60,314h6.3V226.5c0-3.9,1.3-6.9,4-8.9Zm-1.8,2.8c-2.8,2.1-4.1,5.3-4.1,9.8v85.6H61.1L20.7,242v59.1c0,4.6,1.3,7.9,4,9.8v.9H10V311c2.7-2,4-5.2,4-9.8V226.3c0-4.5-1.3-7.8-4-9.8v-.9H30.1l27.5,47.7V226.4c0-4.6-1.3-7.9-4-9.8v-.9H68.4l.1.8Z" transform="translate(-5.7 -4.39)"/><path class="cls-8" d="M134.4,315.7h-57v-6.6a9.29,9.29,0,0,0,4-7.9V226.3a9.41,9.41,0,0,0-4-7.9v-6.6h57v22.1h-6.8c-2.6-4.6-5.8-6.9-9.7-6.9h-6.1v25.4h7.3c2.4,0,4.7-1.5,7-4.6h6.4v25.6h-6.6c-2.3-3-4.6-4.4-6.8-4.4h-7.3v31.2h6.1c3.9,0,7.1-2.3,9.7-6.9h6.8Zm-1.9-20.5h-3.9q-3.9,6.9-10.8,6.9h-8v-35h9.1c2.9,0,5.4,1.5,7.7,4.4h3.9V249.7h-3.7c-2.3,3.1-4.9,4.6-7.8,4.6h-9.1V225.1h8q7,0,10.8,6.9h3.9V213.7H79.2v3.8c2.7,2.1,4,5,4,8.9v74.9c0,3.9-1.3,6.8-4,8.8V314h53.3Zm-1.8,16.7H81V311c2.7-2,4-5.2,4-9.8V226.3c0-4.5-1.3-7.8-4-9.8v-.9h49.6v14.5h-1a12.68,12.68,0,0,0-11.8-6.9H108v33h11a10.31,10.31,0,0,0,8.8-4.6h.9v18.2h-1a10.64,10.64,0,0,0-8.7-4.6H108V304h9.8a12.58,12.58,0,0,0,11.8-6.9h1l.1,14.8Z" transform="translate(-5.7 -4.39)"/><path class="cls-8" d="M212.2,219.2q-5.25,1.8-6.6,6.3l-24.8,90.2H169.1l-24-91.9c-.7-1.5-2.6-3.2-5.7-5v-7H181v7.4c-3,1.1-4.6,2.5-4.6,4.3l.3,1.5c.9,3.3,1.5,5.9,2,7.7s.9,3.5,1.4,5.1.9,3.3,1.4,5.2,1.1,4.5,2,7.8l6.8-26.8a2.77,2.77,0,0,1,.1-.9,5.64,5.64,0,0,1,.1-.7c0-1.1-1.6-2.2-4.8-3.4v-7.3h26.5Zm-1.8-5.5H187.7v4.2c3.2,1.3,4.8,2.8,4.8,4.6a3.75,3.75,0,0,1-.1,1,6.88,6.88,0,0,1-.2,1.3c-1.5,5.4-3,10.9-4.4,16.6s-2.8,11.3-4.3,16.8c-.9-3.3-1.6-6.3-2.4-8.9s-1.4-5.1-2-7.5-1.3-4.9-2-7.5-1.5-5.6-2.4-9a4.53,4.53,0,0,1-.3-1.6c0-2.7,1.6-4.6,4.7-5.7v-4.2H141.3v3.9c3.1,1.8,5,3.7,5.6,5.8L170.4,314h8.8l24.2-88.9a9.81,9.81,0,0,1,6.7-7.1v-4.3Zm-1.9,2.8q-4.8,1.8-6.6,8.1l-24,87.4h-5.8l-23.2-89a11,11,0,0,0-5.6-6.5v-.9h33.9v.9a7.07,7.07,0,0,0-4.6,7,3.08,3.08,0,0,0,.1,1,5.16,5.16,0,0,0,.2,1.1L183.3,266,194,224.8a5.85,5.85,0,0,0,.2-1.3c0-.4.1-.8.1-1.1,0-2.6-1.6-4.6-4.8-5.9v-.9h19v.9Z" transform="translate(-5.7 -4.39)"/><path class="cls-8" d="M274.4,315.7h-57v-6.6a9.29,9.29,0,0,0,4-7.9V226.3a9.41,9.41,0,0,0-4-7.9v-6.6h57v22.1h-6.8c-2.6-4.6-5.8-6.9-9.7-6.9h-6.1v25.4h7.3c2.4,0,4.7-1.5,7-4.6h6.4v25.6h-6.6c-2.3-3-4.6-4.4-6.8-4.4h-7.3v31.2h6.1c3.9,0,7.1-2.3,9.7-6.9h6.8v22.4Zm-1.8-20.5h-3.9q-3.9,6.9-10.8,6.9h-8v-35H259c2.9,0,5.4,1.5,7.7,4.4h3.9V249.7h-3.7c-2.3,3.1-4.9,4.6-7.8,4.6H250V225.1h8q7,0,10.8,6.9h3.9V213.7H219.4v3.8c2.7,2.1,4,5,4,8.9v74.9c0,3.9-1.3,6.8-4,8.8V314h53.3V295.2Zm-1.9,16.7H221.1V311c2.7-2,4-5.2,4-9.8V226.3c0-4.5-1.3-7.8-4-9.8v-.9h49.6v14.5h-1a12.68,12.68,0,0,0-11.8-6.9H248v33h11a10.31,10.31,0,0,0,8.8-4.6h.9v18.2h-1a10.64,10.64,0,0,0-8.7-4.6H248V304h9.8a12.58,12.58,0,0,0,11.8-6.9h1v14.8Z" transform="translate(-5.7 -4.39)"/><path class="cls-8" d="M360.4,313.8a32.26,32.26,0,0,1-7.3,1.6c-2.2.2-3.9.3-4.9.3a41.7,41.7,0,0,1-18.7-4.3,38.38,38.38,0,0,1-14.4-12v1.8a9,9,0,0,0,4.1,7.9v6.6H279.6v-6.6a9.29,9.29,0,0,0,4-7.9V226.3a9.41,9.41,0,0,0-4-7.9v-6.6h33.7a46.1,46.1,0,0,1,15.4,2.6,40,40,0,0,1,12.8,7.5,35.71,35.71,0,0,1,8.8,11.6,33.57,33.57,0,0,1,3.3,14.9,31.09,31.09,0,0,1-2.1,11.6,35.85,35.85,0,0,1-5.7,9.6,35.42,35.42,0,0,1-8.6,7.2,36.64,36.64,0,0,1-10.8,4.4,17.34,17.34,0,0,0,5.3,2,27.05,27.05,0,0,0,5.9.5c3,0,7.7-1.2,13.8-3.6-.1,2.1-.2,4-.2,5.8s-.1,3.6-.1,5.4a32.78,32.78,0,0,0,2.6,12.7A34.32,34.32,0,0,0,360.4,313.8Zm-3.7-.9a16.71,16.71,0,0,1-2.6-3.4,33.1,33.1,0,0,1-2.4-5,35,35,0,0,1-1.6-6.2,38.52,38.52,0,0,1-.6-6.9v-2.1c0-1,0-3.2.1-6.4-4.8,1.9-8.7,2.8-11.8,2.8a26,26,0,0,1-16.3-5.4,37.09,37.09,0,0,0,12.4-3.2,31,31,0,0,0,9.5-6.6,28.55,28.55,0,0,0,6.1-9.7,33.14,33.14,0,0,0,2.2-12.5,31.79,31.79,0,0,0-3.1-14.2,35,35,0,0,0-8.4-11,37.42,37.42,0,0,0-12.3-7.1,42.85,42.85,0,0,0-14.7-2.5H281.4v3.8c2.8,2.1,4.1,5,4.1,8.9v74.9c0,4-1.4,6.9-4.1,8.8v3.9h35.8v-3.9c-2.7-1.9-4-4.8-4-8.8v-8.5a36.66,36.66,0,0,0,5.9,8.8,40.72,40.72,0,0,0,8.2,6.7,36.46,36.46,0,0,0,9.9,4.2,40.37,40.37,0,0,0,10.9,1.5c.9,0,2.1,0,3.6-.1A39.13,39.13,0,0,0,356.7,312.9Zm-3.3-1.4a30.76,30.76,0,0,1-5.3.4,36.35,36.35,0,0,1-13.5-2.5,39.65,39.65,0,0,1-11.6-6.9,37.39,37.39,0,0,1-8.1-10.4,29.05,29.05,0,0,1-3.1-13.1h-.7v22.2c0,4.7,1.4,7.9,4.1,9.8v.9H283.3V311c2.7-2,4-5.2,4-9.8V226.3c0-4.5-1.3-7.8-4-9.8v-.9h29.8A40.63,40.63,0,0,1,327,218a37.59,37.59,0,0,1,11.7,6.7,31.51,31.51,0,0,1,8,10.4,31.1,31.1,0,0,1,2.9,13.5,28.68,28.68,0,0,1-2.6,12.2,29.36,29.36,0,0,1-6.9,9.4,32.18,32.18,0,0,1-10.3,6.2A40.48,40.48,0,0,1,317,279a26.69,26.69,0,0,0,20.5,8.8,24.77,24.77,0,0,0,10-1.9c-.1,1.3-.2,2.4-.2,3.3s-.1,1.7-.1,2.4C347.4,301,349.4,307.8,353.4,311.5ZM325,247.6a44.5,44.5,0,0,0-.7-7.9,30.69,30.69,0,0,0-2.4-7.6,20,20,0,0,0-4.3-6,12.5,12.5,0,0,0-6.5-3.2v49.3h.6a8.67,8.67,0,0,0,6.4-2.6,19.5,19.5,0,0,0,4.1-6.5,35.69,35.69,0,0,0,2.1-8.1A56.7,56.7,0,0,0,325,247.6Zm-1.8,0a54.18,54.18,0,0,1-.5,6.5,40.74,40.74,0,0,1-1.6,7.1,22,22,0,0,1-3.1,5.9,7.94,7.94,0,0,1-4.8,3.1V225.4a11.56,11.56,0,0,1,4.6,3.6,19.63,19.63,0,0,1,3.1,5.5,32.58,32.58,0,0,1,1.7,6.5A36.83,36.83,0,0,1,323.2,247.6Zm-2,0a43.21,43.21,0,0,0-1.4-10.4,18,18,0,0,0-4.7-8.5v38.8a9.78,9.78,0,0,0,2.9-3.6,27.6,27.6,0,0,0,1.9-5.3,39.11,39.11,0,0,0,1-5.8C321.1,250.8,321.2,249.1,321.2,247.6Z" transform="translate(-5.7 -4.39)"/><path class="cls-8" d="M480.1,262.7c0,17.2-4.2,30.4-12.5,39.4s-20.3,13.6-35.9,13.6H406.6v-6.6a8.87,8.87,0,0,0,4.3-7.9V226.3a8.76,8.76,0,0,0-4.3-7.9v-6.6h18a74.1,74.1,0,0,1,22.7,3.3,48,48,0,0,1,17.5,9.7,44.71,44.71,0,0,1,11.3,15.9A57.2,57.2,0,0,1,480.1,262.7Zm-1.9,0a53.31,53.31,0,0,0-3.9-21.1,41.5,41.5,0,0,0-10.9-15.3,49.16,49.16,0,0,0-17-9.4,71.94,71.94,0,0,0-21.9-3.2h-16v3.6c2.8,1.8,4.1,4.8,4.1,9v74.9c0,4.2-1.4,7.2-4.1,9v3.6h23.1c15,0,26.5-4.4,34.5-13.1S478.2,279.4,478.2,262.7Zm-1.8,0c0,16.1-3.9,28.3-11.6,36.7S446.1,312,431.7,312H410.4v-.8c2.9-1.9,4.3-5.2,4.3-10V226.3c0-4.8-1.4-8.1-4.3-10v-.8h14.1a70.31,70.31,0,0,1,21.1,3,45,45,0,0,1,16.4,9,40.24,40.24,0,0,1,10.6,14.7A52.06,52.06,0,0,1,476.4,262.7ZM452.5,264q0-40.5-14.1-40.5v80.9a10,10,0,0,0,6.4-2c1.8-1.3,3.3-3.5,4.4-6.7a53.64,53.64,0,0,0,2.5-12.5A171.17,171.17,0,0,0,452.5,264Zm-1.8,0c0,6.7-.2,12.5-.6,17.2a68.19,68.19,0,0,1-1.9,11.6,20.2,20.2,0,0,1-3.2,6.9,7.92,7.92,0,0,1-4.6,2.9V225.7C447.2,227.7,450.7,240.5,450.7,264Zm-2,0q0-29.55-6.6-35.1v70.8a7.42,7.42,0,0,0,3.1-3.4,26.89,26.89,0,0,0,2-6.7,82.94,82.94,0,0,0,1.1-10.5C448.6,274.8,448.7,269.8,448.7,264Z" transform="translate(-5.7 -4.39)"/><path class="cls-8" d="M520.7,315.7H485.2v-6.6a9.29,9.29,0,0,0,3.7-7.9V226.3a9.67,9.67,0,0,0-3.7-7.9v-6.6h35.5v6.6a9.8,9.8,0,0,0-3.7,7.9v74.9a9.16,9.16,0,0,0,3.7,7.9Zm-1.7-5.8c-2.5-1.9-3.7-4.8-3.7-8.8V226.2c0-3.9,1.2-6.8,3.7-8.9v-3.8H486.9v3.8c2.5,2.1,3.7,5,3.7,8.9v74.9c0,4-1.2,6.9-3.7,8.8v3.9H519Zm-1.7,2H488.6V311c2.5-1.9,3.7-5.2,3.7-9.8V226.3c0-4.5-1.2-7.8-3.7-9.8v-.9h28.7v.9c-2.5,2.1-3.7,5.3-3.7,9.8v74.9c0,4.7,1.2,7.9,3.7,9.8Z" transform="translate(-5.7 -4.39)"/><path class="cls-8" d="M582.9,315.7h-57v-6.6a9.29,9.29,0,0,0,4-7.9V226.3a9.41,9.41,0,0,0-4-7.9v-6.6h57v22.1h-6.8c-2.6-4.6-5.8-6.9-9.7-6.9h-6.1v25.4h7.3c2.4,0,4.7-1.5,7-4.6H581v25.6h-6.6c-2.3-3-4.6-4.4-6.8-4.4h-7.3v31.2h6.1c3.9,0,7.1-2.3,9.7-6.9h6.8v22.4ZM581,295.2h-3.9q-3.9,6.9-10.8,6.9h-8v-35h9.1c2.9,0,5.4,1.5,7.7,4.4H579V249.7h-3.7c-2.3,3.1-4.9,4.6-7.8,4.6h-9.1V225.1h8q7.05,0,10.8,6.9h3.9V213.7H527.8v3.8c2.7,2.1,4,5,4,8.9v74.9c0,3.9-1.3,6.8-4,8.8V314H581Zm-1.8,16.7H529.6V311c2.7-2,4-5.2,4-9.8V226.3c0-4.5-1.3-7.8-4-9.8v-.9h49.6v14.5h-1a12.68,12.68,0,0,0-11.8-6.9h-9.8v33h11a10.31,10.31,0,0,0,8.8-4.6h.9v18.2h-1a10.64,10.64,0,0,0-8.7-4.6h-11V304h9.8a12.58,12.58,0,0,0,11.8-6.9h1Z" transform="translate(-5.7 -4.39)"/><path class="cls-8" d="M702.6,219.2a13.33,13.33,0,0,0-7.8,6.9L684,249.3v52a8.93,8.93,0,0,0,4,7.9v6.6H648.8v-6.6a9.2,9.2,0,0,0,3.9-7.9V251.4L638,224.2c-1.1-2.2-3.5-3.7-7.1-4.7v-7.7h43.5v7.4c-2.6.8-3.9,1.5-3.9,2.2a2.27,2.27,0,0,0,.6,1.6l5.1,8.6,3.9-8.3a2.82,2.82,0,0,0,.4-1.8c0-.8-1.2-1.5-3.7-2v-7.7h25.8Zm-1.9-5.5H678.6V218c2.5.7,3.7,1.9,3.7,3.5a7.37,7.37,0,0,1-.6,2.7l-5.6,11.3-6.4-11a6.09,6.09,0,0,1-1.1-3.1c0-1.3,1.3-2.5,3.9-3.5v-4.2H632.9v4.2a11.39,11.39,0,0,1,6.7,5.4c2.5,4.6,5,9.2,7.5,13.7s5,9.2,7.5,13.7v50.5c0,4-1.3,6.9-4,8.8v3.9H686V310c-2.6-1.9-3.9-4.8-3.9-8.8V249.1l11-23.8a14.25,14.25,0,0,1,3.4-4.7,13,13,0,0,1,4.3-2.7v-4.2Zm-1.9,2.8c-3.1,1.2-5.7,3.9-7.6,8.1L680,248.7v52.5c0,4.7,1.3,7.9,4,9.8v.9H652.3V311c2.7-1.9,4-5.2,4-9.8V250.3l-15-27.9a11,11,0,0,0-6.7-5.9v-.9h35.8v.9q-3.9,1.5-3.9,4.8a6.83,6.83,0,0,0,1.1,3.5l8.6,14.8,7.1-14.8a6.92,6.92,0,0,0,.9-3.4,4.7,4.7,0,0,0-3.7-5v-.9h18.3v1Z" transform="translate(-5.7 -4.39)"/><path class="cls-8" d="M759.9,227.9c-6.1-9.3-13.4-13.9-22-13.9s-16,4.7-22.1,13.9c-6.1,9.5-9.1,21.4-9.1,35.7s3,26.2,9,35.4,13.5,14,22.2,14,16.1-4.7,22.1-13.9c6.1-9.6,9.1-21.4,9.1-35.5S766,237.5,759.9,227.9Zm-9.08,49.64a33.31,33.31,0,0,1-2.54,8.17,4.58,4.58,0,0,1-.1,2.58c-1.41,4.4-2.62,9-5.73,12.52a4.29,4.29,0,0,1-3.48,1.61,4.44,4.44,0,0,1-4.7-1.29,11.53,11.53,0,0,1-1.93-2.77,4.31,4.31,0,0,1-1.55-1.89c-7.46-17.08-12.25-39.69-3-57a4.85,4.85,0,0,1,.25-1.26c.37-1.08.75-2.15,1-3.24.07-.4.15-.8.25-1.2a4.62,4.62,0,0,1,1.69-2.54c.84-3.12,3.1-6.16,6.28-7a5.79,5.79,0,0,1,7.34,5.48,4.94,4.94,0,0,1,.85,2.73c0,.28,0,.56.06.84a4.59,4.59,0,0,1,4.84,3.54,59.69,59.69,0,0,1,2.6,16.74,4.86,4.86,0,0,1,.11,1.4C752.72,262.4,751.9,270.13,750.82,277.54Z" transform="translate(-5.7 -4.39)"/><path class="cls-8" d="M762.9,226.1c-6.7-10.5-15-15.8-25.1-15.8s-18.5,5.3-25.2,15.8a63.28,63.28,0,0,0-7.3,17,85.71,85.71,0,0,0,0,41.1,63.59,63.59,0,0,0,7.2,16.8c6.9,10.5,15.3,15.8,25.4,15.8s18.4-5.3,25.2-15.8c6.5-10,9.7-22.5,9.7-37.4S769.5,236.2,762.9,226.1ZM761.4,300a36.08,36.08,0,0,1-10.6,11,23.24,23.24,0,0,1-12.9,3.9c-9.5,0-17.4-4.9-23.8-14.8-6.2-9.8-9.3-22-9.3-36.5,0-14.7,3.1-26.9,9.4-36.6,6.3-9.9,14.2-14.8,23.7-14.8a23.35,23.35,0,0,1,12.9,4A36.45,36.45,0,0,1,761.4,227q9.6,14.85,9.6,36.6C771,278.1,767.8,290.2,761.4,300Z" transform="translate(-5.7 -4.39)"/><path class="cls-8" d="M845.6,218.4a9.14,9.14,0,0,0-3.9,7.8v62.2a27.22,27.22,0,0,1-8.8,20.2,31,31,0,0,1-32.5,6,29.9,29.9,0,0,1-9.6-6,30.78,30.78,0,0,1-6.6-9,26.51,26.51,0,0,1-2.4-11.2V226.2a9,9,0,0,0-4-7.8v-6.7h39.1v6.7a9,9,0,0,0-4,7.8v63.3a5.48,5.48,0,0,0,1.9,4.4,6.34,6.34,0,0,0,4.6,1.8,6.11,6.11,0,0,0,4.5-1.8,5.88,5.88,0,0,0,1.8-4.4V226.2a9.23,9.23,0,0,0-4-7.8v-6.7h24l-.1,6.7Zm-1.8-4.9H823.5v3.8c2.7,2,4,4.9,4,8.9v63.3a7.63,7.63,0,0,1-2.4,5.7,8.2,8.2,0,0,1-14-5.7V226.2c0-3.9,1.3-6.8,3.9-8.9v-3.8H779.9v3.8c2.6,2.1,3.9,5,3.9,8.9v62.2a24.46,24.46,0,0,0,2.3,10.5,28.32,28.32,0,0,0,6.1,8.4,29.69,29.69,0,0,0,9,5.6,29.24,29.24,0,0,0,30.4-5.7,25,25,0,0,0,8.3-18.8V226.2c0-3.9,1.3-6.9,4-8.9v-3.8Zm-1.9,3c-2.7,2-4,5.2-4,9.7v62.2a23.6,23.6,0,0,1-7.7,17.5,25.59,25.59,0,0,1-18.4,7.1,26,26,0,0,1-9.9-1.9,27.64,27.64,0,0,1-8.4-5.2,24.85,24.85,0,0,1-5.8-7.8,23,23,0,0,1-2.1-9.8V226.1c0-4.6-1.3-7.8-3.9-9.7v-1.1h31.4v1.1c-2.6,1.9-3.9,5.1-3.9,9.7v63.3a9.6,9.6,0,0,0,3,7.1,10.07,10.07,0,0,0,7.1,2.9,9.9,9.9,0,0,0,7.1-2.9,9.44,9.44,0,0,0,3-7.1V226.1c0-4.4-1.4-7.6-4.1-9.7v-1.1h16.5v1.2Z" transform="translate(-5.7 -4.39)"/><path class="cls-8" d="M916.8,218.4a9.54,9.54,0,0,0-4,7.9v89.4h-9.3l-34.4-59.6v45.1a8.93,8.93,0,0,0,4,7.9v6.6H850.7v-6.6a8.91,8.91,0,0,0,4.1-7.9V226.3a9.5,9.5,0,0,0-4.1-7.9v-6.6h26.1l21.7,37.4V226.3a9.41,9.41,0,0,0-4-7.9v-6.6h22.2v6.6Zm-1.9-4.7H896.4v3.8c2.7,2.1,4,5,4,8.9v30l-24.7-42.7h-23v3.8c2.7,2.1,4,5,4,8.9v74.9c0,3.9-1.3,6.8-4,8.8V314h18.5v-3.9c-2.8-1.9-4.1-4.8-4.1-8.8V249.2L904.6,314h6.3V226.5c0-3.9,1.3-6.9,4-8.9Zm-1.8,2.8c-2.8,2.1-4.1,5.3-4.1,9.8v85.6h-3.3L865.3,242v59.1c0,4.6,1.3,7.9,4,9.8v.9H854.6V311c2.7-2,4-5.2,4-9.8V226.3c0-4.5-1.3-7.8-4-9.8v-.9h20.1l27.5,47.7V226.4c0-4.6-1.3-7.9-4-9.8v-.9H913v.8Z" transform="translate(-5.7 -4.39)"/><path class="cls-8" d="M995.8,255.3a9.54,9.54,0,0,0-4,7.9v50.5l-6.8,1.6c-1-1.9-3.1-2.8-6.1-2.8a9.77,9.77,0,0,0-4.4.7,29.67,29.67,0,0,1-6.8,2.8,28.2,28.2,0,0,1-7.1.9,31.07,31.07,0,0,1-12.1-2.3,32.4,32.4,0,0,1-9.7-6.3,37.93,37.93,0,0,1-7.4-9.3,63.42,63.42,0,0,1-5.2-11.2,73.25,73.25,0,0,1-4.1-24.1,69.85,69.85,0,0,1,2.5-18.2,59.31,59.31,0,0,1,7.6-17.2,45.57,45.57,0,0,1,12.6-12.9,30.55,30.55,0,0,1,17.6-5c12.4,0,22.8,8.1,31.2,24.2L968.5,246V231.7a5.28,5.28,0,0,0-1.7-4,5.89,5.89,0,0,0-4.3-1.6,5.58,5.58,0,0,0-4.1,1.6,5.44,5.44,0,0,0-1.7,4v17h38.6Zm-2.3-4.8H954.8V231.7a7.25,7.25,0,0,1,2.3-5.4,7.73,7.73,0,0,1,5.4-2.2,7.31,7.31,0,0,1,5.6,2.2,7,7,0,0,1,2.2,5.4v11.4l20.4-9.6c-7.4-14.3-17-21.4-28.7-21.4a29.58,29.58,0,0,0-16.8,4.8,41.78,41.78,0,0,0-12,12.4,55.9,55.9,0,0,0-7.1,16.6,68.92,68.92,0,0,0-2.4,17.6,78.2,78.2,0,0,0,2.1,17.6,56.52,56.52,0,0,0,6.6,16.6A39.56,39.56,0,0,0,943.8,310a28,28,0,0,0,16.3,4.8,26.67,26.67,0,0,0,13.1-3.4,12.34,12.34,0,0,1,5.3-.9c4,0,6.5,1,7.4,3l3.3-.7V263.1c.3-4,1.8-7,4.4-8.9Zm-1.4,2.9c-2.8,2.1-4.1,5.3-4.1,9.8v48.7c-1.6-2.2-4.7-3.2-9.1-3.2a13.57,13.57,0,0,0-6.3,1.2,24.23,24.23,0,0,1-12.1,3.1,25.84,25.84,0,0,1-15.5-4.6,37.42,37.42,0,0,1-10.8-11.9,59.35,59.35,0,0,1-6.3-16,71.53,71.53,0,0,1-2.1-16.8,67.16,67.16,0,0,1,2.3-16.8,57.19,57.19,0,0,1,6.8-16,41.78,41.78,0,0,1,11.3-12,27.36,27.36,0,0,1,15.9-4.7c10.7,0,19.4,6.2,26.1,18.7l-15.8,7.4v-8.5a8.85,8.85,0,0,0-2.9-6.7,10.17,10.17,0,0,0-13.8,0,8.85,8.85,0,0,0-2.9,6.7v68.9a5.45,5.45,0,0,0,1.9,4.1,6,6,0,0,0,4.3,1.8,6.07,6.07,0,0,0,4.2-1.7,5.45,5.45,0,0,0,1.8-4.2V261a14,14,0,0,0-7.3,6.1h-1V252.6h35.2Zm-33.3,15.5c.7-1.1,1.3-2,1.9-2.8a10.31,10.31,0,0,1,2.4-2.2v36.8a3.85,3.85,0,0,1-1.2,2.9,3.91,3.91,0,0,1-2.9,1.1,4.05,4.05,0,0,1-2.9-1.3,3.84,3.84,0,0,1-1.3-2.8V268.8l4,.1Zm-2.1,1.8v29.9a2.08,2.08,0,0,0,.7,1.5,2.13,2.13,0,0,0,1.6.7,2.45,2.45,0,0,0,1.6-.6,1.8,1.8,0,0,0,.7-1.5V268.9a3.49,3.49,0,0,1-.6.9l-.6.9Z" transform="translate(-5.7 -4.39)"/></g><g class="cls-7"><path class="cls-1" d="M72.2,218.4a9.54,9.54,0,0,0-4,7.9v89.4H58.9L24.5,256.1v45.1a8.93,8.93,0,0,0,4,7.9v6.6H6.2v-6.6a8.91,8.91,0,0,0,4.1-7.9V226.3a9.5,9.5,0,0,0-4.1-7.9v-6.6H32.3L54,249.2V226.3a9.41,9.41,0,0,0-4-7.9v-6.6H72.2Zm-1.9-4.7H51.8v3.8c2.7,2.1,4,5,4,8.9v30L31.1,213.7H8.1v3.8c2.7,2.1,4,5,4,8.9v74.9c0,3.9-1.3,6.8-4,8.8V314H26.6v-3.9c-2.8-1.9-4.1-4.8-4.1-8.8V249.2L60,314h6.3V226.5c0-3.9,1.3-6.9,4-8.9Zm-1.8,2.8c-2.8,2.1-4.1,5.3-4.1,9.8v85.6H61.1L20.7,242v59.1c0,4.6,1.3,7.9,4,9.8v.9H10V311c2.7-2,4-5.2,4-9.8V226.3c0-4.5-1.3-7.8-4-9.8v-.9H30.1l27.5,47.7V226.4c0-4.6-1.3-7.9-4-9.8v-.9H68.4l.1.8Z" transform="translate(-5.7 -4.39)"/><path class="cls-1" d="M134.4,315.7h-57v-6.6a9.29,9.29,0,0,0,4-7.9V226.3a9.41,9.41,0,0,0-4-7.9v-6.6h57v22.1h-6.8c-2.6-4.6-5.8-6.9-9.7-6.9h-6.1v25.4h7.3c2.4,0,4.7-1.5,7-4.6h6.4v25.6h-6.6c-2.3-3-4.6-4.4-6.8-4.4h-7.3v31.2h6.1c3.9,0,7.1-2.3,9.7-6.9h6.8Zm-1.9-20.5h-3.9q-3.9,6.9-10.8,6.9h-8v-35h9.1c2.9,0,5.4,1.5,7.7,4.4h3.9V249.7h-3.7c-2.3,3.1-4.9,4.6-7.8,4.6h-9.1V225.1h8q7,0,10.8,6.9h3.9V213.7H79.2v3.8c2.7,2.1,4,5,4,8.9v74.9c0,3.9-1.3,6.8-4,8.8V314h53.3Zm-1.8,16.7H81V311c2.7-2,4-5.2,4-9.8V226.3c0-4.5-1.3-7.8-4-9.8v-.9h49.6v14.5h-1a12.68,12.68,0,0,0-11.8-6.9H108v33h11a10.31,10.31,0,0,0,8.8-4.6h.9v18.2h-1a10.64,10.64,0,0,0-8.7-4.6H108V304h9.8a12.58,12.58,0,0,0,11.8-6.9h1l.1,14.8Z" transform="translate(-5.7 -4.39)"/><path class="cls-1" d="M212.2,219.2q-5.25,1.8-6.6,6.3l-24.8,90.2H169.1l-24-91.9c-.7-1.5-2.6-3.2-5.7-5v-7H181v7.4c-3,1.1-4.6,2.5-4.6,4.3l.3,1.5c.9,3.3,1.5,5.9,2,7.7s.9,3.5,1.4,5.1.9,3.3,1.4,5.2,1.1,4.5,2,7.8l6.8-26.8a2.77,2.77,0,0,1,.1-.9,5.64,5.64,0,0,1,.1-.7c0-1.1-1.6-2.2-4.8-3.4v-7.3h26.5Zm-1.8-5.5H187.7v4.2c3.2,1.3,4.8,2.8,4.8,4.6a3.75,3.75,0,0,1-.1,1,6.88,6.88,0,0,1-.2,1.3c-1.5,5.4-3,10.9-4.4,16.6s-2.8,11.3-4.3,16.8c-.9-3.3-1.6-6.3-2.4-8.9s-1.4-5.1-2-7.5-1.3-4.9-2-7.5-1.5-5.6-2.4-9a4.53,4.53,0,0,1-.3-1.6c0-2.7,1.6-4.6,4.7-5.7v-4.2H141.3v3.9c3.1,1.8,5,3.7,5.6,5.8L170.4,314h8.8l24.2-88.9a9.81,9.81,0,0,1,6.7-7.1v-4.3Zm-1.9,2.8q-4.8,1.8-6.6,8.1l-24,87.4h-5.8l-23.2-89a11,11,0,0,0-5.6-6.5v-.9h33.9v.9a7.07,7.07,0,0,0-4.6,7,3.08,3.08,0,0,0,.1,1,5.16,5.16,0,0,0,.2,1.1L183.3,266,194,224.8a5.85,5.85,0,0,0,.2-1.3c0-.4.1-.8.1-1.1,0-2.6-1.6-4.6-4.8-5.9v-.9h19v.9Z" transform="translate(-5.7 -4.39)"/><path class="cls-1" d="M274.4,315.7h-57v-6.6a9.29,9.29,0,0,0,4-7.9V226.3a9.41,9.41,0,0,0-4-7.9v-6.6h57v22.1h-6.8c-2.6-4.6-5.8-6.9-9.7-6.9h-6.1v25.4h7.3c2.4,0,4.7-1.5,7-4.6h6.4v25.6h-6.6c-2.3-3-4.6-4.4-6.8-4.4h-7.3v31.2h6.1c3.9,0,7.1-2.3,9.7-6.9h6.8v22.4Zm-1.8-20.5h-3.9q-3.9,6.9-10.8,6.9h-8v-35H259c2.9,0,5.4,1.5,7.7,4.4h3.9V249.7h-3.7c-2.3,3.1-4.9,4.6-7.8,4.6H250V225.1h8q7,0,10.8,6.9h3.9V213.7H219.4v3.8c2.7,2.1,4,5,4,8.9v74.9c0,3.9-1.3,6.8-4,8.8V314h53.3V295.2Zm-1.9,16.7H221.1V311c2.7-2,4-5.2,4-9.8V226.3c0-4.5-1.3-7.8-4-9.8v-.9h49.6v14.5h-1a12.68,12.68,0,0,0-11.8-6.9H248v33h11a10.31,10.31,0,0,0,8.8-4.6h.9v18.2h-1a10.64,10.64,0,0,0-8.7-4.6H248V304h9.8a12.58,12.58,0,0,0,11.8-6.9h1v14.8Z" transform="translate(-5.7 -4.39)"/><path class="cls-1" d="M360.4,313.8a32.26,32.26,0,0,1-7.3,1.6c-2.2.2-3.9.3-4.9.3a41.7,41.7,0,0,1-18.7-4.3,38.38,38.38,0,0,1-14.4-12v1.8a9,9,0,0,0,4.1,7.9v6.6H279.6v-6.6a9.29,9.29,0,0,0,4-7.9V226.3a9.41,9.41,0,0,0-4-7.9v-6.6h33.7a46.1,46.1,0,0,1,15.4,2.6,40,40,0,0,1,12.8,7.5,35.71,35.71,0,0,1,8.8,11.6,33.57,33.57,0,0,1,3.3,14.9,31.09,31.09,0,0,1-2.1,11.6,35.85,35.85,0,0,1-5.7,9.6,35.42,35.42,0,0,1-8.6,7.2,36.64,36.64,0,0,1-10.8,4.4,17.34,17.34,0,0,0,5.3,2,27.05,27.05,0,0,0,5.9.5c3,0,7.7-1.2,13.8-3.6-.1,2.1-.2,4-.2,5.8s-.1,3.6-.1,5.4a32.78,32.78,0,0,0,2.6,12.7A34.32,34.32,0,0,0,360.4,313.8Zm-3.7-.9a16.71,16.71,0,0,1-2.6-3.4,33.1,33.1,0,0,1-2.4-5,35,35,0,0,1-1.6-6.2,38.52,38.52,0,0,1-.6-6.9v-2.1c0-1,0-3.2.1-6.4-4.8,1.9-8.7,2.8-11.8,2.8a26,26,0,0,1-16.3-5.4,37.09,37.09,0,0,0,12.4-3.2,31,31,0,0,0,9.5-6.6,28.55,28.55,0,0,0,6.1-9.7,33.14,33.14,0,0,0,2.2-12.5,31.79,31.79,0,0,0-3.1-14.2,35,35,0,0,0-8.4-11,37.42,37.42,0,0,0-12.3-7.1,42.85,42.85,0,0,0-14.7-2.5H281.4v3.8c2.8,2.1,4.1,5,4.1,8.9v74.9c0,4-1.4,6.9-4.1,8.8v3.9h35.8v-3.9c-2.7-1.9-4-4.8-4-8.8v-8.5a36.66,36.66,0,0,0,5.9,8.8,40.72,40.72,0,0,0,8.2,6.7,36.46,36.46,0,0,0,9.9,4.2,40.37,40.37,0,0,0,10.9,1.5c.9,0,2.1,0,3.6-.1A39.13,39.13,0,0,0,356.7,312.9Zm-3.3-1.4a30.76,30.76,0,0,1-5.3.4,36.35,36.35,0,0,1-13.5-2.5,39.65,39.65,0,0,1-11.6-6.9,37.39,37.39,0,0,1-8.1-10.4,29.05,29.05,0,0,1-3.1-13.1h-.7v22.2c0,4.7,1.4,7.9,4.1,9.8v.9H283.3V311c2.7-2,4-5.2,4-9.8V226.3c0-4.5-1.3-7.8-4-9.8v-.9h29.8A40.63,40.63,0,0,1,327,218a37.59,37.59,0,0,1,11.7,6.7,31.51,31.51,0,0,1,8,10.4,31.1,31.1,0,0,1,2.9,13.5,28.68,28.68,0,0,1-2.6,12.2,29.36,29.36,0,0,1-6.9,9.4,32.18,32.18,0,0,1-10.3,6.2A40.48,40.48,0,0,1,317,279a26.69,26.69,0,0,0,20.5,8.8,24.77,24.77,0,0,0,10-1.9c-.1,1.3-.2,2.4-.2,3.3s-.1,1.7-.1,2.4C347.4,301,349.4,307.8,353.4,311.5ZM325,247.6a44.5,44.5,0,0,0-.7-7.9,30.69,30.69,0,0,0-2.4-7.6,20,20,0,0,0-4.3-6,12.5,12.5,0,0,0-6.5-3.2v49.3h.6a8.67,8.67,0,0,0,6.4-2.6,19.5,19.5,0,0,0,4.1-6.5,35.69,35.69,0,0,0,2.1-8.1A56.7,56.7,0,0,0,325,247.6Zm-1.8,0a54.18,54.18,0,0,1-.5,6.5,40.74,40.74,0,0,1-1.6,7.1,22,22,0,0,1-3.1,5.9,7.94,7.94,0,0,1-4.8,3.1V225.4a11.56,11.56,0,0,1,4.6,3.6,19.63,19.63,0,0,1,3.1,5.5,32.58,32.58,0,0,1,1.7,6.5A36.83,36.83,0,0,1,323.2,247.6Zm-2,0a43.21,43.21,0,0,0-1.4-10.4,18,18,0,0,0-4.7-8.5v38.8a9.78,9.78,0,0,0,2.9-3.6,27.6,27.6,0,0,0,1.9-5.3,39.11,39.11,0,0,0,1-5.8C321.1,250.8,321.2,249.1,321.2,247.6Z" transform="translate(-5.7 -4.39)"/><path class="cls-1" d="M480.1,262.7c0,17.2-4.2,30.4-12.5,39.4s-20.3,13.6-35.9,13.6H406.6v-6.6a8.87,8.87,0,0,0,4.3-7.9V226.3a8.76,8.76,0,0,0-4.3-7.9v-6.6h18a74.1,74.1,0,0,1,22.7,3.3,48,48,0,0,1,17.5,9.7,44.71,44.71,0,0,1,11.3,15.9A57.2,57.2,0,0,1,480.1,262.7Zm-1.9,0a53.31,53.31,0,0,0-3.9-21.1,41.5,41.5,0,0,0-10.9-15.3,49.16,49.16,0,0,0-17-9.4,71.94,71.94,0,0,0-21.9-3.2h-16v3.6c2.8,1.8,4.1,4.8,4.1,9v74.9c0,4.2-1.4,7.2-4.1,9v3.6h23.1c15,0,26.5-4.4,34.5-13.1S478.2,279.4,478.2,262.7Zm-1.8,0c0,16.1-3.9,28.3-11.6,36.7S446.1,312,431.7,312H410.4v-.8c2.9-1.9,4.3-5.2,4.3-10V226.3c0-4.8-1.4-8.1-4.3-10v-.8h14.1a70.31,70.31,0,0,1,21.1,3,45,45,0,0,1,16.4,9,40.24,40.24,0,0,1,10.6,14.7A52.06,52.06,0,0,1,476.4,262.7ZM452.5,264q0-40.5-14.1-40.5v80.9a10,10,0,0,0,6.4-2c1.8-1.3,3.3-3.5,4.4-6.7a53.64,53.64,0,0,0,2.5-12.5A171.17,171.17,0,0,0,452.5,264Zm-1.8,0c0,6.7-.2,12.5-.6,17.2a68.19,68.19,0,0,1-1.9,11.6,20.2,20.2,0,0,1-3.2,6.9,7.92,7.92,0,0,1-4.6,2.9V225.7C447.2,227.7,450.7,240.5,450.7,264Zm-2,0q0-29.55-6.6-35.1v70.8a7.42,7.42,0,0,0,3.1-3.4,26.89,26.89,0,0,0,2-6.7,82.94,82.94,0,0,0,1.1-10.5C448.6,274.8,448.7,269.8,448.7,264Z" transform="translate(-5.7 -4.39)"/><path class="cls-1" d="M520.7,315.7H485.2v-6.6a9.29,9.29,0,0,0,3.7-7.9V226.3a9.67,9.67,0,0,0-3.7-7.9v-6.6h35.5v6.6a9.8,9.8,0,0,0-3.7,7.9v74.9a9.16,9.16,0,0,0,3.7,7.9Zm-1.7-5.8c-2.5-1.9-3.7-4.8-3.7-8.8V226.2c0-3.9,1.2-6.8,3.7-8.9v-3.8H486.9v3.8c2.5,2.1,3.7,5,3.7,8.9v74.9c0,4-1.2,6.9-3.7,8.8v3.9H519Zm-1.7,2H488.6V311c2.5-1.9,3.7-5.2,3.7-9.8V226.3c0-4.5-1.2-7.8-3.7-9.8v-.9h28.7v.9c-2.5,2.1-3.7,5.3-3.7,9.8v74.9c0,4.7,1.2,7.9,3.7,9.8Z" transform="translate(-5.7 -4.39)"/><path class="cls-1" d="M582.9,315.7h-57v-6.6a9.29,9.29,0,0,0,4-7.9V226.3a9.41,9.41,0,0,0-4-7.9v-6.6h57v22.1h-6.8c-2.6-4.6-5.8-6.9-9.7-6.9h-6.1v25.4h7.3c2.4,0,4.7-1.5,7-4.6H581v25.6h-6.6c-2.3-3-4.6-4.4-6.8-4.4h-7.3v31.2h6.1c3.9,0,7.1-2.3,9.7-6.9h6.8v22.4ZM581,295.2h-3.9q-3.9,6.9-10.8,6.9h-8v-35h9.1c2.9,0,5.4,1.5,7.7,4.4H579V249.7h-3.7c-2.3,3.1-4.9,4.6-7.8,4.6h-9.1V225.1h8q7.05,0,10.8,6.9h3.9V213.7H527.8v3.8c2.7,2.1,4,5,4,8.9v74.9c0,3.9-1.3,6.8-4,8.8V314H581Zm-1.8,16.7H529.6V311c2.7-2,4-5.2,4-9.8V226.3c0-4.5-1.3-7.8-4-9.8v-.9h49.6v14.5h-1a12.68,12.68,0,0,0-11.8-6.9h-9.8v33h11a10.31,10.31,0,0,0,8.8-4.6h.9v18.2h-1a10.64,10.64,0,0,0-8.7-4.6h-11V304h9.8a12.58,12.58,0,0,0,11.8-6.9h1Z" transform="translate(-5.7 -4.39)"/><path class="cls-1" d="M702.6,219.2a13.33,13.33,0,0,0-7.8,6.9L684,249.3v52a8.93,8.93,0,0,0,4,7.9v6.6H648.8v-6.6a9.2,9.2,0,0,0,3.9-7.9V251.4L638,224.2c-1.1-2.2-3.5-3.7-7.1-4.7v-7.7h43.5v7.4c-2.6.8-3.9,1.5-3.9,2.2a2.27,2.27,0,0,0,.6,1.6l5.1,8.6,3.9-8.3a2.82,2.82,0,0,0,.4-1.8c0-.8-1.2-1.5-3.7-2v-7.7h25.8Zm-1.9-5.5H678.6V218c2.5.7,3.7,1.9,3.7,3.5a7.37,7.37,0,0,1-.6,2.7l-5.6,11.3-6.4-11a6.09,6.09,0,0,1-1.1-3.1c0-1.3,1.3-2.5,3.9-3.5v-4.2H632.9v4.2a11.39,11.39,0,0,1,6.7,5.4c2.5,4.6,5,9.2,7.5,13.7s5,9.2,7.5,13.7v50.5c0,4-1.3,6.9-4,8.8v3.9H686V310c-2.6-1.9-3.9-4.8-3.9-8.8V249.1l11-23.8a14.25,14.25,0,0,1,3.4-4.7,13,13,0,0,1,4.3-2.7v-4.2Zm-1.9,2.8c-3.1,1.2-5.7,3.9-7.6,8.1L680,248.7v52.5c0,4.7,1.3,7.9,4,9.8v.9H652.3V311c2.7-1.9,4-5.2,4-9.8V250.3l-15-27.9a11,11,0,0,0-6.7-5.9v-.9h35.8v.9q-3.9,1.5-3.9,4.8a6.83,6.83,0,0,0,1.1,3.5l8.6,14.8,7.1-14.8a6.92,6.92,0,0,0,.9-3.4,4.7,4.7,0,0,0-3.7-5v-.9h18.3v1Z" transform="translate(-5.7 -4.39)"/><path class="cls-1" d="M772.7,263.6c0,14.9-3.2,27.4-9.7,37.4-6.8,10.5-15.2,15.8-25.2,15.8s-18.5-5.3-25.4-15.8a63.59,63.59,0,0,1-7.2-16.8,85.71,85.71,0,0,1,0-41.1,63.28,63.28,0,0,1,7.3-17c6.7-10.5,15.1-15.8,25.2-15.8s18.4,5.3,25.1,15.8Q772.7,241.25,772.7,263.6Zm-1.8,0q0-21.75-9.6-36.6a36.45,36.45,0,0,0-10.6-10.8,23.35,23.35,0,0,0-12.9-4c-9.5,0-17.4,4.9-23.7,14.8-6.3,9.7-9.4,21.9-9.4,36.6,0,14.5,3.1,26.7,9.3,36.5,6.4,9.9,14.3,14.8,23.8,14.8a23.24,23.24,0,0,0,12.9-3.9,36.08,36.08,0,0,0,10.6-11C767.7,290.3,770.9,278.1,770.9,263.6Zm-64.3,0c0-14.3,3-26.2,9.1-35.7m0,0c6.1-9.2,13.5-13.9,22.1-13.9s15.9,4.6,22,13.9c6.1,9.6,9.2,21.5,9.2,35.7s-3,25.9-9.1,35.5c-6,9.2-13.4,13.9-22.1,13.9s-16.2-4.7-22.2-14-9-21-9-35.4" transform="translate(-5.7 -4.39)"/><path class="cls-1" d="M845.6,218.4a9.14,9.14,0,0,0-3.9,7.8v62.2a27.22,27.22,0,0,1-8.8,20.2,31,31,0,0,1-32.5,6,29.9,29.9,0,0,1-9.6-6,30.78,30.78,0,0,1-6.6-9,26.51,26.51,0,0,1-2.4-11.2V226.2a9,9,0,0,0-4-7.8v-6.7h39.1v6.7a9,9,0,0,0-4,7.8v63.3a5.48,5.48,0,0,0,1.9,4.4,6.34,6.34,0,0,0,4.6,1.8,6.11,6.11,0,0,0,4.5-1.8,5.88,5.88,0,0,0,1.8-4.4V226.2a9.23,9.23,0,0,0-4-7.8v-6.7h24l-.1,6.7Zm-1.8-4.9H823.5v3.8c2.7,2,4,4.9,4,8.9v63.3a7.63,7.63,0,0,1-2.4,5.7,8.2,8.2,0,0,1-14-5.7V226.2c0-3.9,1.3-6.8,3.9-8.9v-3.8H779.9v3.8c2.6,2.1,3.9,5,3.9,8.9v62.2a24.46,24.46,0,0,0,2.3,10.5,28.32,28.32,0,0,0,6.1,8.4,29.69,29.69,0,0,0,9,5.6,29.24,29.24,0,0,0,30.4-5.7,25,25,0,0,0,8.3-18.8V226.2c0-3.9,1.3-6.9,4-8.9v-3.8Zm-1.9,3c-2.7,2-4,5.2-4,9.7v62.2a23.6,23.6,0,0,1-7.7,17.5,25.59,25.59,0,0,1-18.4,7.1,26,26,0,0,1-9.9-1.9,27.64,27.64,0,0,1-8.4-5.2,24.85,24.85,0,0,1-5.8-7.8,23,23,0,0,1-2.1-9.8V226.1c0-4.6-1.3-7.8-3.9-9.7v-1.1h31.4v1.1c-2.6,1.9-3.9,5.1-3.9,9.7v63.3a9.6,9.6,0,0,0,3,7.1,10.07,10.07,0,0,0,7.1,2.9,9.9,9.9,0,0,0,7.1-2.9,9.44,9.44,0,0,0,3-7.1V226.1c0-4.4-1.4-7.6-4.1-9.7v-1.1h16.5v1.2Z" transform="translate(-5.7 -4.39)"/><path class="cls-1" d="M916.8,218.4a9.54,9.54,0,0,0-4,7.9v89.4h-9.3l-34.4-59.6v45.1a8.93,8.93,0,0,0,4,7.9v6.6H850.7v-6.6a8.91,8.91,0,0,0,4.1-7.9V226.3a9.5,9.5,0,0,0-4.1-7.9v-6.6h26.1l21.7,37.4V226.3a9.41,9.41,0,0,0-4-7.9v-6.6h22.2v6.6Zm-1.9-4.7H896.4v3.8c2.7,2.1,4,5,4,8.9v30l-24.7-42.7h-23v3.8c2.7,2.1,4,5,4,8.9v74.9c0,3.9-1.3,6.8-4,8.8V314h18.5v-3.9c-2.8-1.9-4.1-4.8-4.1-8.8V249.2L904.6,314h6.3V226.5c0-3.9,1.3-6.9,4-8.9Zm-1.8,2.8c-2.8,2.1-4.1,5.3-4.1,9.8v85.6h-3.3L865.3,242v59.1c0,4.6,1.3,7.9,4,9.8v.9H854.6V311c2.7-2,4-5.2,4-9.8V226.3c0-4.5-1.3-7.8-4-9.8v-.9h20.1l27.5,47.7V226.4c0-4.6-1.3-7.9-4-9.8v-.9H913v.8Z" transform="translate(-5.7 -4.39)"/><path class="cls-1" d="M995.8,255.3a9.54,9.54,0,0,0-4,7.9v50.5l-6.8,1.6c-1-1.9-3.1-2.8-6.1-2.8a9.77,9.77,0,0,0-4.4.7,29.67,29.67,0,0,1-6.8,2.8,28.2,28.2,0,0,1-7.1.9,31.07,31.07,0,0,1-12.1-2.3,32.4,32.4,0,0,1-9.7-6.3,37.93,37.93,0,0,1-7.4-9.3,63.42,63.42,0,0,1-5.2-11.2,73.25,73.25,0,0,1-4.1-24.1,69.85,69.85,0,0,1,2.5-18.2,59.31,59.31,0,0,1,7.6-17.2,45.57,45.57,0,0,1,12.6-12.9,30.55,30.55,0,0,1,17.6-5c12.4,0,22.8,8.1,31.2,24.2L968.5,246V231.7a5.28,5.28,0,0,0-1.7-4,5.89,5.89,0,0,0-4.3-1.6,5.58,5.58,0,0,0-4.1,1.6,5.44,5.44,0,0,0-1.7,4v17h38.6Zm-2.3-4.8H954.8V231.7a7.25,7.25,0,0,1,2.3-5.4,7.73,7.73,0,0,1,5.4-2.2,7.31,7.31,0,0,1,5.6,2.2,7,7,0,0,1,2.2,5.4v11.4l20.4-9.6c-7.4-14.3-17-21.4-28.7-21.4a29.58,29.58,0,0,0-16.8,4.8,41.78,41.78,0,0,0-12,12.4,55.9,55.9,0,0,0-7.1,16.6,68.92,68.92,0,0,0-2.4,17.6,78.2,78.2,0,0,0,2.1,17.6,56.52,56.52,0,0,0,6.6,16.6A39.56,39.56,0,0,0,943.8,310a28,28,0,0,0,16.3,4.8,26.67,26.67,0,0,0,13.1-3.4,12.34,12.34,0,0,1,5.3-.9c4,0,6.5,1,7.4,3l3.3-.7V263.1c.3-4,1.8-7,4.4-8.9Zm-1.4,2.9c-2.8,2.1-4.1,5.3-4.1,9.8v48.7c-1.6-2.2-4.7-3.2-9.1-3.2a13.57,13.57,0,0,0-6.3,1.2,24.23,24.23,0,0,1-12.1,3.1,25.84,25.84,0,0,1-15.5-4.6,37.42,37.42,0,0,1-10.8-11.9,59.35,59.35,0,0,1-6.3-16,71.53,71.53,0,0,1-2.1-16.8,67.16,67.16,0,0,1,2.3-16.8,57.19,57.19,0,0,1,6.8-16,41.78,41.78,0,0,1,11.3-12,27.36,27.36,0,0,1,15.9-4.7c10.7,0,19.4,6.2,26.1,18.7l-15.8,7.4v-8.5a8.85,8.85,0,0,0-2.9-6.7,10.17,10.17,0,0,0-13.8,0,8.85,8.85,0,0,0-2.9,6.7v68.9a5.45,5.45,0,0,0,1.9,4.1,6,6,0,0,0,4.3,1.8,6.07,6.07,0,0,0,4.2-1.7,5.45,5.45,0,0,0,1.8-4.2V261a14,14,0,0,0-7.3,6.1h-1V252.6h35.2Zm-33.3,15.5c.7-1.1,1.3-2,1.9-2.8a10.31,10.31,0,0,1,2.4-2.2v36.8a3.85,3.85,0,0,1-1.2,2.9,3.91,3.91,0,0,1-2.9,1.1,4.05,4.05,0,0,1-2.9-1.3,3.84,3.84,0,0,1-1.3-2.8V268.8l4,.1Zm-2.1,1.8v29.9a2.08,2.08,0,0,0,.7,1.5,2.13,2.13,0,0,0,1.6.7,2.45,2.45,0,0,0,1.6-.6,1.8,1.8,0,0,0,.7-1.5V268.9a3.49,3.49,0,0,1-.6.9l-.6.9Z" transform="translate(-5.7 -4.39)"/></g><path class="cls-9" d="M1182.7,408.7" transform="translate(-5.7 -4.39)"/></g></g><g id="Layer_2" data-name="Layer 2"><path class="cls-10" d="M737.7,220.9c-9.06,0-16.4,19-16.4,42.4s7.34,42.4,16.4,42.4,16.4-19,16.4-42.4S746.76,220.9,737.7,220.9ZM750.78,277a5.46,5.46,0,0,1-1.15,5c0,.19-.1.38-.16.57a5.66,5.66,0,0,1-.51,4.34,20.44,20.44,0,0,1-4.44,10.85,4.94,4.94,0,0,1-1.13,2.13,5.92,5.92,0,0,1-1.1,1.58,5,5,0,0,1-2.17,1.28,4.8,4.8,0,0,1-2.79.82,8,8,0,0,1-6.07-4.72,5.14,5.14,0,0,1-1.2-3,5.49,5.49,0,0,1-1-1.81,71.08,71.08,0,0,1-3.58-13.19,49.16,49.16,0,0,1-.38-6.29,5.79,5.79,0,0,1-.27-2.74,5.55,5.55,0,0,1-.2-5.81,5.79,5.79,0,0,1,.11-3.17,5.72,5.72,0,0,1-.16-3,5,5,0,0,1,.07-4.67,5.58,5.58,0,0,1,.7-4v-.21a5.79,5.79,0,0,1,.09-3.7,5.61,5.61,0,0,1,.61-2.68,5.71,5.71,0,0,1,.47-1.88,4.73,4.73,0,0,1,.25-.62,3.91,3.91,0,0,1,.51-1,5.66,5.66,0,0,1,.51-3.17,5.38,5.38,0,0,1,1-3.44,5.17,5.17,0,0,1,1.28-3.31,4.69,4.69,0,0,1,1.8-2.67s0,0,0,0a6.39,6.39,0,0,1,.7-.83,5.15,5.15,0,0,1,4.89-3.87,4.89,4.89,0,0,1,4,2.14,4,4,0,0,1,2.57,2.12,5,5,0,0,1,1.86,3.87,5.14,5.14,0,0,1,1.51,3.72,5.66,5.66,0,0,1,.4,2,5.32,5.32,0,0,1,.86,2.84,5.4,5.4,0,0,1,.87,3.23,5.75,5.75,0,0,1,.46,1.4,3.88,3.88,0,0,1,.57,1.06,3.68,3.68,0,0,1,.43,1.93v.16a4.71,4.71,0,0,1-.11,1,4.78,4.78,0,0,1,.11.66,112.85,112.85,0,0,1,.66,14,5.69,5.69,0,0,1-.11,2.78l-.06,1.29a5.65,5.65,0,0,1-.36,4.8,5.75,5.75,0,0,1-.2,1.89A5.66,5.66,0,0,1,750.78,277Z" transform="translate(-5.7 -4.39)"/><g id="strings"><line class="cls-11" x1="742.4" y1="231.41" x2="742.4" y2="286.81"/><line class="cls-11" x1="738.5" y1="224.61" x2="738.5" y2="294.01"/><line class="cls-11" x1="734.5" y1="297.03" x2="734.5" y2="298.41"/><line class="cls-11" x1="734.5" y1="221.11" x2="734.5" y2="297.03"/><line class="cls-11" x1="730.3" y1="219.81" x2="730.3" y2="299.11"/><line class="cls-11" x1="726.1" y1="223.31" x2="726.1" y2="294.71"/><line class="cls-11" x1="721.9" y1="231.41" x2="721.9" y2="286.11"/></g><path class="cls-12" d="M751.6,263.4c0,3.26-.14,6.43-.39,9.46" transform="translate(-5.7 -4.39)"/><path class="cls-12" d="M750.17,245.75a105.57,105.57,0,0,1,1.43,17.65" transform="translate(-5.7 -4.39)"/><path class="cls-12" d="M745.86,231.16a56.55,56.55,0,0,1,4.31,14.59" transform="translate(-5.7 -4.39)"/><path class="cls-12" d="M737.9,223.8c3,0,5.71,2.73,8,7.36" transform="translate(-5.7 -4.39)"/><path class="cls-12" d="M730.16,230.73c2.2-4.37,4.87-6.93,7.74-6.93" transform="translate(-5.7 -4.39)"/><path class="cls-12" d="M724.62,253.58c.84-9.43,2.84-17.5,5.54-22.85" transform="translate(-5.7 -4.39)"/><path class="cls-12" d="M724.25,266.66c0-1.07,0-2.16,0-3.26,0-3.39.15-6.68.42-9.82" transform="translate(-5.7 -4.39)"/><path class="cls-12" d="M725.52,280.4a102.49,102.49,0,0,1-1.27-13.74" transform="translate(-5.7 -4.39)"/><path class="cls-12" d="M728.65,292.62a65.87,65.87,0,0,1-3.13-12.22" transform="translate(-5.7 -4.39)"/><path class="cls-12" d="M734.05,301.42c-2-1.72-3.87-4.77-5.4-8.8" transform="translate(-5.7 -4.39)"/><path class="cls-12" d="M747.7,291.07c-2.49,7.36-6,11.93-9.8,11.93a6,6,0,0,1-3.85-1.58" transform="translate(-5.7 -4.39)"/><path class="cls-12" d="M751.21,272.86a79,79,0,0,1-3.51,18.21" transform="translate(-5.7 -4.39)"/></g><path class="cls-8" d="M240.64,347.8c-.19-.93-.39-1.85-.59-2.75s-.41-1.82-.62-2.72h-6.68c-.22.9-.42,1.81-.62,2.72s-.4,1.82-.59,2.75h-3.9c.44-1.17.87-2.37,1.29-3.61s.83-2.48,1.22-3.71.75-2.44,1.09-3.63.68-2.34,1-3.42l.81-3c.25-.94.46-1.77.64-2.49h4.87c.17.72.39,1.55.63,2.49l.81,3c.3,1.08.62,2.22,1,3.42s.72,2.4,1.1,3.63.79,2.47,1.21,3.71.86,2.44,1.29,3.61Zm-4.7-17q-.84,2.46-1.52,4.89c-.45,1.63-.88,3.26-1.28,4.91H239c-.4-1.65-.83-3.28-1.28-4.91s-1-3.25-1.51-4.89Z" transform="translate(-5.7 -4.39)"/><path class="cls-8" d="M263.65,347.8c-.33-1.2-.68-2.45-1-3.77s-.75-2.64-1.17-4-.86-2.7-1.33-4.06-1-2.66-1.51-3.93h-.21c0,.41,0,.88-.05,1.4s0,1.05,0,1.57,0,1,0,1.53,0,.92,0,1.29c0,.74,0,1.52,0,2.34s0,1.66.06,2.51.06,1.72.1,2.58.1,1.71.17,2.53h-3.76c.08-.82.15-1.66.19-2.53s.09-1.72.12-2.58.05-1.69.06-2.51,0-1.6,0-2.34,0-1.53,0-2.35,0-1.65-.06-2.5-.07-1.71-.12-2.57-.11-1.69-.19-2.51h4.87c.81,2.75,1.62,5.38,2.45,7.89S264,340.7,265,343h.27q1.45-3.37,2.7-7.15t2.46-7.89h4.87c-.09.82-.15,1.66-.2,2.51S275,332.14,275,333s-.05,1.68-.06,2.5,0,1.6,0,2.35,0,1.52,0,2.34,0,1.66.06,2.51.06,1.72.11,2.58.11,1.71.2,2.53H271.5c.06-.82.12-1.66.16-2.53s.08-1.72.1-2.58.05-1.69.07-2.51,0-1.6,0-2.34V335c0-.52,0-1,0-1.57s0-1,0-1.4h-.2c-.54,1.27-1,2.58-1.51,3.93s-.92,2.71-1.34,4.06-.8,2.68-1.17,4-.71,2.57-1,3.77Z" transform="translate(-5.7 -4.39)"/><path class="cls-8" d="M287.17,346.42a5.43,5.43,0,0,0,2-.32,3.58,3.58,0,0,0,1.4-.91,3.7,3.7,0,0,0,.83-1.45,6.18,6.18,0,0,0,.28-1.94v-4.67c0-1.47,0-3-.07-4.53s-.15-3.11-.3-4.69h3.86c-.12,1.59-.21,3.16-.28,4.72s-.09,3.05-.09,4.5v4.67a7.35,7.35,0,0,1-.47,2.7,5.23,5.23,0,0,1-1.42,2,6.54,6.54,0,0,1-2.37,1.27,13,13,0,0,1-6.72,0,6.54,6.54,0,0,1-2.37-1.27,5.23,5.23,0,0,1-1.42-2,7.35,7.35,0,0,1-.47-2.7v-4.67q0-2.17-.09-4.5c-.06-1.56-.16-3.13-.28-4.72H283c-.15,1.58-.25,3.14-.3,4.69s-.07,3.06-.07,4.53v4.67a6.5,6.5,0,0,0,.27,1.94,3.69,3.69,0,0,0,.82,1.45,3.55,3.55,0,0,0,1.41.91A5.52,5.52,0,0,0,287.17,346.42Z" transform="translate(-5.7 -4.39)"/><path class="cls-8" d="M303.85,346.55a7.16,7.16,0,0,0,1.61-.18,4.23,4.23,0,0,0,1.41-.58,3.17,3.17,0,0,0,1-1,3.05,3.05,0,0,0,.37-1.54,2.56,2.56,0,0,0-.45-1.45,5.92,5.92,0,0,0-1.16-1.27,12.83,12.83,0,0,0-1.64-1.18l-1.89-1.15q-1-.59-1.89-1.2a11.59,11.59,0,0,1-1.64-1.3,6,6,0,0,1-1.16-1.49,3.43,3.43,0,0,1-.44-1.73,3.7,3.7,0,0,1,.71-2.32,5.3,5.3,0,0,1,1.83-1.51,8.69,8.69,0,0,1,2.46-.82,14.88,14.88,0,0,1,2.62-.25,19.38,19.38,0,0,1,2.57.16c.83.1,1.63.21,2.4.32v2.88c-.44-.26-.86-.49-1.25-.71a10.17,10.17,0,0,0-1.17-.54,7.17,7.17,0,0,0-1.2-.35,6.86,6.86,0,0,0-1.31-.12,7.86,7.86,0,0,0-1.64.17,4.29,4.29,0,0,0-1.33.51,2.71,2.71,0,0,0-.9.88,2.33,2.33,0,0,0-.34,1.28,2.72,2.72,0,0,0,.76,1.87,9.5,9.5,0,0,0,1.91,1.62c.76.51,1.59,1,2.48,1.53a22.39,22.39,0,0,1,2.49,1.65,9.68,9.68,0,0,1,1.91,1.93,4,4,0,0,1,.76,2.4,4.54,4.54,0,0,1-.33,1.79,4.3,4.3,0,0,1-.89,1.34,5.24,5.24,0,0,1-1.31,1,8.14,8.14,0,0,1-1.58.63,10.93,10.93,0,0,1-1.74.34,14.7,14.7,0,0,1-1.73.1c-.67,0-1.29,0-1.85-.05s-1.09-.08-1.57-.15-.94-.13-1.36-.21l-1.22-.27v-3c.42.28.85.54,1.27.79a9.56,9.56,0,0,0,1.33.64,7.6,7.6,0,0,0,1.45.43A8.53,8.53,0,0,0,303.85,346.55Z" transform="translate(-5.7 -4.39)"/><path class="cls-8" d="M318.81,327.91c-.09.82-.15,1.66-.2,2.51s-.09,1.72-.11,2.57-.05,1.68-.06,2.5,0,1.6,0,2.35,0,1.52,0,2.34,0,1.66.06,2.51.06,1.72.1,2.58.1,1.71.16,2.53h-3.84c.09-.82.15-1.66.2-2.53s.08-1.72.11-2.58,0-1.69.06-2.51,0-1.6,0-2.34,0-1.53,0-2.35,0-1.65-.06-2.5-.06-1.71-.11-2.57-.11-1.69-.2-2.51Z" transform="translate(-5.7 -4.39)"/><path class="cls-8" d="M326,337.87a12.83,12.83,0,0,0,.48,3.68,7.71,7.71,0,0,0,1.34,2.69,5.67,5.67,0,0,0,2.1,1.64,6.48,6.48,0,0,0,2.72.56,7.59,7.59,0,0,0,1.6-.16,7.91,7.91,0,0,0,1.27-.4,8.64,8.64,0,0,0,1.05-.54l1-.57v2.91q-1.16.21-2.31.33a25.42,25.42,0,0,1-2.58.12,13,13,0,0,1-4.07-.62,8.92,8.92,0,0,1-3.23-1.89,8.66,8.66,0,0,1-2.14-3.2,12.35,12.35,0,0,1-.77-4.55,11.76,11.76,0,0,1,.81-4.56,8.91,8.91,0,0,1,2.2-3.2,9.13,9.13,0,0,1,3.24-1.89,12.54,12.54,0,0,1,4-.62,22.69,22.69,0,0,1,2.58.13c.77.08,1.54.19,2.31.32V331l-1-.57a8.64,8.64,0,0,0-1.05-.54,7.42,7.42,0,0,0-2.87-.55,6.48,6.48,0,0,0-2.72.55,5.59,5.59,0,0,0-2.1,1.65,7.66,7.66,0,0,0-1.34,2.68A12.9,12.9,0,0,0,326,337.87Z" transform="translate(-5.7 -4.39)"/><path class="cls-8" d="M351.61,347.8c-.19-.93-.39-1.85-.59-2.75s-.42-1.82-.62-2.72h-6.68c-.22.9-.43,1.81-.62,2.72s-.4,1.82-.59,2.75h-3.9c.44-1.17.87-2.37,1.29-3.61s.83-2.48,1.21-3.71.75-2.44,1.1-3.63.67-2.34,1-3.42l.81-3c.25-.94.46-1.77.64-2.49h4.87c.17.72.39,1.55.63,2.49l.81,3c.3,1.08.62,2.22,1,3.42s.71,2.4,1.1,3.63.79,2.47,1.21,3.71.86,2.44,1.29,3.61Zm-4.7-17q-.84,2.46-1.52,4.89c-.45,1.63-.88,3.26-1.28,4.91H350c-.4-1.65-.83-3.28-1.29-4.91s-1-3.25-1.51-4.89Z" transform="translate(-5.7 -4.39)"/><path class="cls-8" d="M361.57,327.91c-.08.82-.14,1.66-.19,2.51s-.09,1.72-.11,2.57,0,1.68-.07,2.5,0,1.6,0,2.35c0,1.24,0,2.58.05,4s.08,2.85.18,4.26h8.32v1.7h-12c.08-.82.15-1.66.2-2.53s.08-1.72.11-2.58.05-1.69.06-2.51,0-1.6,0-2.34,0-1.53,0-2.35,0-1.65-.06-2.5-.06-1.71-.11-2.57-.12-1.69-.2-2.51Z" transform="translate(-5.7 -4.39)"/><path class="cls-8" d="M383.12,337.87a12.83,12.83,0,0,0,.48,3.68,7.71,7.71,0,0,0,1.34,2.69,5.67,5.67,0,0,0,2.1,1.64,6.48,6.48,0,0,0,2.72.56,7.59,7.59,0,0,0,1.6-.16,7.48,7.48,0,0,0,1.26-.4,8.09,8.09,0,0,0,1.06-.54l1-.57v2.91q-1.15.21-2.31.33a25.42,25.42,0,0,1-2.58.12,13,13,0,0,1-4.07-.62,8.84,8.84,0,0,1-3.23-1.89,8.54,8.54,0,0,1-2.14-3.2,12.35,12.35,0,0,1-.77-4.55,11.76,11.76,0,0,1,.81-4.56,8.91,8.91,0,0,1,2.2-3.2,9,9,0,0,1,3.24-1.89,12.54,12.54,0,0,1,4-.62,22.69,22.69,0,0,1,2.58.13c.77.08,1.54.19,2.31.32V331l-1-.57a8.09,8.09,0,0,0-1.06-.54,6.68,6.68,0,0,0-1.26-.39,7,7,0,0,0-1.6-.16,6.48,6.48,0,0,0-2.72.55,5.59,5.59,0,0,0-2.1,1.65,7.66,7.66,0,0,0-1.34,2.68A12.9,12.9,0,0,0,383.12,337.87Z" transform="translate(-5.7 -4.39)"/><path class="cls-8" d="M409.62,327.91v1.69h-8.17c-.09,1.11-.14,2.22-.18,3.32s-.06,2.18-.07,3.22H409v1.7H401.2c0,1.24,0,2.58,0,4s.09,2.85.19,4.26h8.32v1.7h-12c.08-.82.14-1.66.19-2.53s.09-1.72.12-2.58,0-1.69.06-2.51,0-1.6,0-2.34,0-1.53,0-2.35,0-1.65-.06-2.5-.07-1.71-.12-2.57-.11-1.69-.19-2.51Z" transform="translate(-5.7 -4.39)"/><path class="cls-8" d="M417.28,327.91c-.08.82-.14,1.66-.19,2.51S417,332.14,417,333s-.05,1.68-.06,2.5,0,1.6,0,2.35c0,1.24,0,2.58.05,4s.08,2.85.18,4.26h8.32v1.7h-12c.08-.82.15-1.66.2-2.53s.08-1.72.11-2.58.05-1.69.06-2.51,0-1.6,0-2.34,0-1.53,0-2.35,0-1.65-.06-2.5-.06-1.71-.11-2.57-.12-1.69-.2-2.51Z" transform="translate(-5.7 -4.39)"/><path class="cls-8" d="M439.61,327.91v1.69h-8.17c-.08,1.11-.14,2.22-.18,3.32s-.05,2.18-.07,3.22H439v1.7h-7.83c0,1.24,0,2.58,0,4s.09,2.85.19,4.26h8.32v1.7h-12c.08-.82.15-1.66.2-2.53s.08-1.72.11-2.58.05-1.69.06-2.51,0-1.6,0-2.34,0-1.53,0-2.35,0-1.65-.06-2.5-.07-1.71-.11-2.57-.12-1.69-.2-2.51Z" transform="translate(-5.7 -4.39)"/><path class="cls-8" d="M449.72,327.91a14.47,14.47,0,0,1,3,.28,7.32,7.32,0,0,1,2.31.87,4.14,4.14,0,0,1,1.49,1.51,4.39,4.39,0,0,1,.52,2.2,5,5,0,0,1-.3,1.8,4,4,0,0,1-.84,1.3,4.26,4.26,0,0,1-1.2.86,5.39,5.39,0,0,1-1.44.46,6.37,6.37,0,0,1,1.76.47,4.74,4.74,0,0,1,1.51,1,4.68,4.68,0,0,1,1.05,1.54,5.4,5.4,0,0,1,.39,2.13,6.15,6.15,0,0,1-.4,2.29,4.14,4.14,0,0,1-1.28,1.72,6,6,0,0,1-2.26,1.09,12.58,12.58,0,0,1-3.37.39h-7.26c.09-.82.15-1.66.2-2.53s.08-1.72.11-2.58.05-1.69.06-2.51,0-1.6,0-2.34,0-1.53,0-2.35,0-1.65-.06-2.5-.06-1.71-.11-2.57-.11-1.69-.2-2.51Zm-2.59,1.65c-.08,1.16-.14,2.33-.17,3.51s-.06,2.3-.07,3.38H450a6.73,6.73,0,0,0,1.69-.19,2.47,2.47,0,0,0,1.1-.59,2.25,2.25,0,0,0,.6-1,5.27,5.27,0,0,0,.18-1.47,6.33,6.33,0,0,0-.16-1.5,2.67,2.67,0,0,0-.58-1.15,2.64,2.64,0,0,0-1.1-.72,5,5,0,0,0-1.73-.25Zm-.24,8.54c0,1.22,0,2.52.05,3.9s.09,2.75.17,4.13h3.35a6,6,0,0,0,1.66-.21,2.88,2.88,0,0,0,1.26-.7,3.15,3.15,0,0,0,.78-1.28,6.12,6.12,0,0,0,.27-1.95,5.05,5.05,0,0,0-.3-1.87,3,3,0,0,0-.84-1.2,3.2,3.2,0,0,0-1.31-.63,6.8,6.8,0,0,0-1.68-.19Z" transform="translate(-5.7 -4.39)"/><path class="cls-8" d="M467.47,327.91a8.75,8.75,0,0,1,5.37,1.43,5.83,5.83,0,0,1,1,7.45,5.77,5.77,0,0,1-2.74,1.87c.31.83.68,1.74,1.13,2.71s.9,1.81,1.49,2.91a40.41,40.41,0,0,0,2.19,3.52h-4.33c-.62-1.44-1.13-2.69-1.53-3.76s-.73-2-1-2.68-.48-1.56-.63-2.16h-4.17c0,.67,0,1.37,0,2.09s0,1.44.07,2.17.06,1.46.1,2.2.09,1.44.14,2.14h-3.84c.08-.82.15-1.66.2-2.53s.08-1.72.11-2.58.05-1.69.06-2.51,0-1.6,0-2.34,0-1.53,0-2.35,0-1.65-.06-2.5-.06-1.71-.11-2.57-.12-1.69-.2-2.51Zm-3,1.62c-.09,1.38-.16,2.76-.19,4.14s-.05,2.7-.05,3.92h3a6.32,6.32,0,0,0,1.65-.2,3,3,0,0,0,1.22-.67,2.93,2.93,0,0,0,.77-1.21,5.35,5.35,0,0,0,.27-1.83,4.4,4.4,0,0,0-1-3.18,4,4,0,0,0-2.93-1Z" transform="translate(-5.7 -4.39)"/><path class="cls-8" d="M489.22,347.8c-.19-.93-.39-1.85-.59-2.75s-.41-1.82-.62-2.72h-6.67c-.22.9-.43,1.81-.63,2.72s-.4,1.82-.59,2.75h-3.9c.44-1.17.87-2.37,1.29-3.61s.83-2.48,1.22-3.71.75-2.44,1.1-3.63.67-2.34,1-3.42.57-2.1.81-3,.46-1.77.64-2.49h4.87l.63,2.49c.25.93.52,1.94.82,3s.61,2.22,1,3.42.72,2.4,1.1,3.63.79,2.47,1.21,3.71.86,2.44,1.3,3.61Zm-4.7-17q-.84,2.46-1.52,4.89c-.45,1.63-.88,3.26-1.27,4.91h5.87c-.4-1.65-.82-3.28-1.28-4.91s-1-3.25-1.51-4.89Z" transform="translate(-5.7 -4.39)"/><path class="cls-8" d="M492.31,327.91h14.07v1.69h-5.24q-.17,2.13-.21,4.26c0,1.42,0,2.74,0,4,0,.74,0,1.52,0,2.34s0,1.66.06,2.51.07,1.72.11,2.58.09,1.71.16,2.53H497.4c.08-.82.15-1.66.19-2.53s.09-1.72.12-2.58.05-1.69.06-2.51,0-1.6,0-2.34c0-1.24,0-2.56-.05-4s-.1-2.84-.2-4.26h-5.23Z" transform="translate(-5.7 -4.39)"/><path class="cls-8" d="M512.75,327.91c-.09.82-.15,1.66-.2,2.51s-.09,1.72-.11,2.57-.05,1.68-.06,2.5,0,1.6,0,2.35,0,1.52,0,2.34,0,1.66.06,2.51.06,1.72.1,2.58.09,1.71.16,2.53h-3.84c.08-.82.15-1.66.2-2.53s.08-1.72.11-2.58.05-1.69.06-2.51,0-1.6,0-2.34,0-1.53,0-2.35,0-1.65-.06-2.5-.06-1.71-.11-2.57-.12-1.69-.2-2.51Z" transform="translate(-5.7 -4.39)"/><path class="cls-8" d="M534.11,337.87a14.15,14.15,0,0,1-.68,4.62,8.84,8.84,0,0,1-1.88,3.22,7.42,7.42,0,0,1-2.82,1.87,10.37,10.37,0,0,1-7,0,7.42,7.42,0,0,1-2.82-1.87,9,9,0,0,1-1.89-3.22,15.78,15.78,0,0,1,0-9.23A9,9,0,0,1,518.9,330a7.44,7.44,0,0,1,2.82-1.88,10.37,10.37,0,0,1,7,0,7.44,7.44,0,0,1,2.82,1.88,8.89,8.89,0,0,1,1.88,3.23A14,14,0,0,1,534.11,337.87Zm-3.53,0a16,16,0,0,0-.41-3.85,8.65,8.65,0,0,0-1.13-2.68,4.7,4.7,0,0,0-1.7-1.55,4.81,4.81,0,0,0-4.23,0,4.81,4.81,0,0,0-1.71,1.55,8.42,8.42,0,0,0-1.14,2.68,18.33,18.33,0,0,0,0,7.71,8.45,8.45,0,0,0,1.14,2.67,4.87,4.87,0,0,0,1.71,1.54,4.72,4.72,0,0,0,4.23,0,4.76,4.76,0,0,0,1.7-1.54,8.69,8.69,0,0,0,1.13-2.67A16.08,16.08,0,0,0,530.58,337.87Z" transform="translate(-5.7 -4.39)"/><path class="cls-8" d="M553,327.91c-.08.82-.15,1.66-.2,2.51s-.08,1.72-.11,2.57,0,1.68-.06,2.5,0,1.6,0,2.35,0,1.52,0,2.34,0,1.66.06,2.51.06,1.72.1,2.58.1,1.71.17,2.53h-3.8q-1-2.13-2.06-4.06c-.67-1.28-1.34-2.52-2-3.72s-1.33-2.38-2-3.52-1.32-2.28-2-3.41H541c0,.84,0,1.66,0,2.45s0,1.56,0,2.3,0,1.52,0,2.34,0,1.66.06,2.51.06,1.72.11,2.58.09,1.71.16,2.53h-3.76c.08-.82.15-1.66.19-2.53s.09-1.72.12-2.58,0-1.69.06-2.51,0-1.6,0-2.34,0-1.53,0-2.35,0-1.65-.06-2.5-.07-1.71-.12-2.57-.11-1.69-.19-2.51h3.84q2.07,4.24,4.07,8t4,7.17h.15c0-.43,0-.87,0-1.33s0-.93,0-1.39,0-.9,0-1.34,0-.84,0-1.21c0-.75,0-1.53,0-2.35s0-1.65-.06-2.5-.07-1.71-.12-2.57-.11-1.69-.19-2.51Z" transform="translate(-5.7 -4.39)"/><path class="cls-8" d="M582.45,337.87a14.15,14.15,0,0,1-.68,4.62,8.84,8.84,0,0,1-1.88,3.22,7.45,7.45,0,0,1-2.83,1.87,10.35,10.35,0,0,1-7,0,7.53,7.53,0,0,1-2.83-1.87,9,9,0,0,1-1.89-3.22,16,16,0,0,1,0-9.23,9,9,0,0,1,1.89-3.23,7.55,7.55,0,0,1,2.83-1.88,10.35,10.35,0,0,1,7,0,7.48,7.48,0,0,1,2.83,1.88,8.89,8.89,0,0,1,1.88,3.23A14,14,0,0,1,582.45,337.87Zm-3.54,0a15.5,15.5,0,0,0-.41-3.85,8.2,8.2,0,0,0-1.13-2.68,4.67,4.67,0,0,0-1.69-1.55,4.61,4.61,0,0,0-2.11-.49,4.56,4.56,0,0,0-2.12.49,4.73,4.73,0,0,0-1.71,1.55A8,8,0,0,0,568.6,334a18.33,18.33,0,0,0,0,7.71,8,8,0,0,0,1.14,2.67,4.79,4.79,0,0,0,1.71,1.54,4.57,4.57,0,0,0,2.12.5,4.62,4.62,0,0,0,2.11-.5,4.73,4.73,0,0,0,1.69-1.54,8.23,8.23,0,0,0,1.13-2.67A15.59,15.59,0,0,0,578.91,337.87Z" transform="translate(-5.7 -4.39)"/><path class="cls-8" d="M597.38,327.91v1.69h-7.75c-.08,1.14-.14,2.28-.17,3.43s-.06,2.26-.07,3.32h7.41V338h-7.41c0,.73,0,1.5,0,2.31s0,1.63.06,2.46.06,1.68.1,2.52.1,1.67.17,2.47H585.9c.08-.82.14-1.66.19-2.53s.09-1.72.11-2.58,0-1.69.07-2.51,0-1.6,0-2.34,0-1.53,0-2.35,0-1.65-.07-2.5-.06-1.71-.11-2.57-.11-1.69-.19-2.51Z" transform="translate(-5.7 -4.39)"/><path class="cls-8" d="M606.89,346.05l.78.16a8.27,8.27,0,0,0,1.46.11,5.28,5.28,0,0,0,1.21-.13,2.71,2.71,0,0,0,1-.48,3,3,0,0,0,.78-.95,5.19,5.19,0,0,0,.49-1.57,15.11,15.11,0,0,0,.18-2.43c0-1,0-2.18,0-3.53s0-3-.08-4.58-.14-3.16-.29-4.74h3.86c-.07.79-.12,1.56-.16,2.33s-.08,1.49-.12,2.18-.06,1.35-.07,1.95,0,1.15,0,1.63,0,1.1,0,1.68,0,1.13,0,1.65,0,1,0,1.4,0,.71,0,.91a8.18,8.18,0,0,1-.43,2.77,5.31,5.31,0,0,1-1.31,2.06,5.73,5.73,0,0,1-2.25,1.27,10.78,10.78,0,0,1-3.24.43,11,11,0,0,1-1.16-.05l-.75-.09Z" transform="translate(-5.7 -4.39)"/><path class="cls-8" d="M631.34,347.8c-.2-.93-.39-1.85-.6-2.75s-.41-1.82-.62-2.72h-6.67c-.22.9-.43,1.81-.63,2.72s-.39,1.82-.58,2.75h-3.91c.44-1.17.87-2.37,1.3-3.61s.83-2.48,1.21-3.71.75-2.44,1.1-3.63.67-2.34,1-3.42.57-2.1.81-3,.46-1.77.64-2.49h4.87c.18.72.39,1.55.64,2.49s.51,1.94.81,3,.61,2.22,1,3.42.72,2.4,1.1,3.63.79,2.47,1.21,3.71.86,2.44,1.3,3.61Zm-4.71-17q-.84,2.46-1.52,4.89c-.45,1.63-.88,3.26-1.27,4.91h5.87c-.39-1.65-.82-3.28-1.28-4.91s-1-3.25-1.51-4.89Z" transform="translate(-5.7 -4.39)"/><path class="cls-8" d="M646.12,347.8c-.32-1.2-.67-2.45-1-3.77s-.76-2.64-1.17-4-.87-2.7-1.34-4.06-1-2.66-1.51-3.93h-.2c0,.41,0,.88,0,1.4s0,1.05,0,1.57,0,1,0,1.53,0,.92,0,1.29c0,.74,0,1.52,0,2.34s0,1.66.06,2.51.06,1.72.1,2.58.1,1.71.16,2.53h-3.75c.08-.82.14-1.66.19-2.53s.09-1.72.11-2.58,0-1.69.07-2.51,0-1.6,0-2.34,0-1.53,0-2.35,0-1.65-.07-2.5-.06-1.71-.11-2.57-.11-1.69-.19-2.51h4.86q1.22,4.13,2.46,7.89t2.7,7.15h.27q1.45-3.37,2.7-7.15c.83-2.51,1.64-5.14,2.45-7.89h4.87c-.08.82-.15,1.66-.19,2.51s-.09,1.72-.12,2.57,0,1.68-.06,2.5,0,1.6,0,2.35,0,1.52,0,2.34,0,1.66.06,2.51.07,1.72.12,2.58.11,1.71.19,2.53H654c.07-.82.13-1.66.17-2.53s.07-1.72.1-2.58,0-1.69.06-2.51,0-1.6,0-2.34V335c0-.52,0-1,0-1.57s0-1,0-1.4h-.2c-.54,1.27-1,2.58-1.51,3.93s-.92,2.71-1.34,4.06-.81,2.68-1.17,4-.71,2.57-1,3.77Z" transform="translate(-5.7 -4.39)"/><path class="cls-8" d="M673.75,327.91v1.69h-8.17c-.08,1.11-.14,2.22-.18,3.32s0,2.18-.07,3.22h7.83v1.7h-7.83c0,1.24,0,2.58,0,4s.09,2.85.19,4.26h8.32v1.7h-12c.08-.82.15-1.66.2-2.53s.08-1.72.11-2.58.05-1.69.06-2.51,0-1.6,0-2.34,0-1.53,0-2.35,0-1.65-.06-2.5-.07-1.71-.11-2.57-.12-1.69-.2-2.51Z" transform="translate(-5.7 -4.39)"/><path class="cls-8" d="M682.3,346.55a7.16,7.16,0,0,0,1.61-.18,4.23,4.23,0,0,0,1.41-.58,3.17,3.17,0,0,0,1-1,3.05,3.05,0,0,0,.37-1.54,2.56,2.56,0,0,0-.45-1.45,5.92,5.92,0,0,0-1.16-1.27,12.83,12.83,0,0,0-1.64-1.18l-1.89-1.15q-1-.59-1.89-1.2a11.59,11.59,0,0,1-1.64-1.3,6,6,0,0,1-1.16-1.49,3.43,3.43,0,0,1-.44-1.73,3.7,3.7,0,0,1,.71-2.32,5.3,5.3,0,0,1,1.83-1.51,8.69,8.69,0,0,1,2.46-.82,14.88,14.88,0,0,1,2.62-.25,19.38,19.38,0,0,1,2.57.16c.83.1,1.63.21,2.4.32v2.88c-.44-.26-.86-.49-1.25-.71a10.17,10.17,0,0,0-1.17-.54,7.17,7.17,0,0,0-1.2-.35,6.86,6.86,0,0,0-1.31-.12,7.86,7.86,0,0,0-1.64.17,4.29,4.29,0,0,0-1.33.51,2.71,2.71,0,0,0-.9.88,2.33,2.33,0,0,0-.34,1.28,2.72,2.72,0,0,0,.76,1.87,9.5,9.5,0,0,0,1.91,1.62c.76.51,1.59,1,2.48,1.53a22.39,22.39,0,0,1,2.49,1.65,9.68,9.68,0,0,1,1.91,1.93,4,4,0,0,1,.76,2.4,4.54,4.54,0,0,1-.33,1.79,4.3,4.3,0,0,1-.89,1.34,5.24,5.24,0,0,1-1.31,1,8.14,8.14,0,0,1-1.58.63,10.93,10.93,0,0,1-1.74.34,14.7,14.7,0,0,1-1.73.1c-.67,0-1.29,0-1.85-.05s-1.09-.08-1.57-.15-.94-.13-1.36-.21l-1.22-.27v-3c.42.28.85.54,1.27.79a9.56,9.56,0,0,0,1.33.64,7.6,7.6,0,0,0,1.45.43A8.53,8.53,0,0,0,682.3,346.55Z" transform="translate(-5.7 -4.39)"/><path class="cls-8" d="M699.72,327.91h14.07v1.69h-5.24c-.11,1.42-.17,2.84-.2,4.26s0,2.74,0,4c0,.74,0,1.52,0,2.34s0,1.66.06,2.51.06,1.72.1,2.58.1,1.71.17,2.53h-3.85c.09-.82.15-1.66.2-2.53s.09-1.72.11-2.58,0-1.69.06-2.51,0-1.6,0-2.34c0-1.24,0-2.56-.06-4s-.1-2.84-.19-4.26h-5.24Z" transform="translate(-5.7 -4.39)"/><path class="cls-8" d="M726,347.8c-.19-.93-.39-1.85-.59-2.75s-.41-1.82-.62-2.72h-6.68c-.21.9-.42,1.81-.62,2.72s-.4,1.82-.59,2.75H713c.44-1.17.87-2.37,1.29-3.61s.83-2.48,1.22-3.71.75-2.44,1.1-3.63.67-2.34,1-3.42.57-2.1.81-3,.46-1.77.64-2.49h4.87l.63,2.49c.25.93.52,1.94.82,3s.61,2.22,1,3.42.72,2.4,1.1,3.63.79,2.47,1.21,3.71.86,2.44,1.3,3.61Zm-4.7-17q-.84,2.46-1.52,4.89c-.45,1.63-.88,3.26-1.27,4.91h5.87c-.4-1.65-.82-3.28-1.28-4.91s-1-3.25-1.51-4.89Z" transform="translate(-5.7 -4.39)"/><path class="cls-8" d="M742.6,330.52l-1.49,2.75q-.75,1.43-1.53,3c-.51,1-1,2.1-1.59,3.23,0,1.43,0,2.83.1,4.2s.14,2.74.25,4.13H734.5c.12-1.39.21-2.77.28-4.13s.1-2.77.11-4.2c-.55-1.13-1.08-2.2-1.6-3.23s-1-2-1.55-3-1-1.87-1.51-2.75-1-1.75-1.46-2.61h3.82c.59,1.67,1.19,3.23,1.82,4.7s1.27,2.87,1.94,4.21h.08q1-2,2-4.21c.63-1.47,1.25-3,1.85-4.7h3.82Z" transform="translate(-5.7 -4.39)"/><path class="cls-8" d="M750,327.91c-.08.82-.15,1.66-.2,2.51s-.08,1.72-.11,2.57,0,1.68-.06,2.5,0,1.6,0,2.35c0,1.24,0,2.58,0,4s.09,2.85.18,4.26h8.32v1.7h-12c.08-.82.14-1.66.19-2.53s.09-1.72.11-2.58.05-1.69.06-2.51,0-1.6,0-2.34,0-1.53,0-2.35,0-1.65-.06-2.5-.06-1.71-.11-2.57-.11-1.69-.19-2.51Z" transform="translate(-5.7 -4.39)"/><path class="cls-8" d="M777.54,337.87a14.15,14.15,0,0,1-.68,4.62,8.84,8.84,0,0,1-1.88,3.22,7.45,7.45,0,0,1-2.83,1.87,10.35,10.35,0,0,1-7,0,7.45,7.45,0,0,1-2.83-1.87,9,9,0,0,1-1.89-3.22,16,16,0,0,1,0-9.23,9,9,0,0,1,1.89-3.23,7.48,7.48,0,0,1,2.83-1.88,10.35,10.35,0,0,1,7,0A7.48,7.48,0,0,1,775,330a8.89,8.89,0,0,1,1.88,3.23A14,14,0,0,1,777.54,337.87Zm-3.54,0a15.5,15.5,0,0,0-.41-3.85,8.2,8.2,0,0,0-1.13-2.68,4.67,4.67,0,0,0-1.69-1.55,4.61,4.61,0,0,0-2.11-.49,4.56,4.56,0,0,0-2.12.49,4.73,4.73,0,0,0-1.71,1.55,8,8,0,0,0-1.14,2.68,18.33,18.33,0,0,0,0,7.71,8,8,0,0,0,1.14,2.67,4.79,4.79,0,0,0,1.71,1.54,4.57,4.57,0,0,0,2.12.5,4.62,4.62,0,0,0,2.11-.5,4.73,4.73,0,0,0,1.69-1.54,8.23,8.23,0,0,0,1.13-2.67A15.59,15.59,0,0,0,774,337.87Z" transform="translate(-5.7 -4.39)"/><path class="cls-8" d="M787.68,327.91a8.71,8.71,0,0,1,5.37,1.43,5.08,5.08,0,0,1,1.91,4.34,5,5,0,0,1-.93,3.11,5.79,5.79,0,0,1-2.73,1.87c.3.83.68,1.74,1.13,2.71s.89,1.81,1.49,2.91a37.89,37.89,0,0,0,2.18,3.52h-4.33c-.62-1.44-1.13-2.69-1.53-3.76s-.72-2-1-2.68-.49-1.56-.64-2.16h-4.17c0,.67,0,1.37,0,2.09s0,1.44.07,2.17.06,1.46.1,2.2.09,1.44.15,2.14H781c.08-.82.14-1.66.19-2.53s.09-1.72.11-2.58.05-1.69.07-2.51,0-1.6,0-2.34,0-1.53,0-2.35,0-1.65-.07-2.5-.06-1.71-.11-2.57-.11-1.69-.19-2.51Zm-3,1.62c-.09,1.38-.16,2.76-.19,4.14s0,2.7,0,3.92h3a6.3,6.3,0,0,0,1.64-.2,2.85,2.85,0,0,0,2-1.88,5.35,5.35,0,0,0,.27-1.83,4.4,4.4,0,0,0-1-3.18,4,4,0,0,0-2.92-1Z" transform="translate(-5.7 -4.39)"/></svg>